<svg width="128" height="128" viewBox="0 0 128 128" fill="none" xmlns="http://www.w3.org/2000/svg">
<path fill-rule="evenodd" clip-rule="evenodd" d="M0.300003 66.5001V56.9001C0.500003 56.8001 0.500003 56.6001 0.500003 56.4001C3.5 43.3001 11.7 35.4001 24.7 32.3001C25.8 32.0001 27 32.1001 28.1 31.7001H34.5C34.6 31.9001 34.9 31.8001 35.1 31.8001C41.5 32.5001 47.3 34.8001 52.4 38.8001C56.8 42.1001 60.2 46.3001 63.3 50.8001C63.7 51.4001 63.9 51.4001 64.3 50.8001C66.1 48.2001 68 45.7001 70.2 43.4001C75.5 37.7001 81.9 33.7001 89.7 32.3001C90.8 32.0001 92.1 32.1001 93.2 31.7001H99.4C99.5 31.9001 99.7 31.8001 99.9 31.8001C101.8 32.0001 103.6 32.4001 105.4 32.9001C118.8 36.8001 128.3 49.1001 127.5 63.0001C126.9 74.7001 121 83.1001 110.7 88.4001C105.6 91.2001 100 91.9001 94.2 91.8001C86.6 91.7001 80 89.1001 74.3 84.1001C70.3 80.6001 67.2 76.4001 64.3 72.0001C63.9 71.4001 63.7 71.5001 63.3 72.1001C61.5 74.8001 59.6 77.5001 57.4 80.1001C53.5 84.5001 49 88.1001 43.4 90.0001C36.5 92.4001 29.5 92.5001 22.5 90.6001C12.4 87.7001 5.5 81.3001 1.7 71.5001C1.1 69.9001 0.800003 68.1001 0.300003 66.5001ZM32.1 81.2001C37.8 81.4001 42.7 79.5001 46.9 75.6001C51.2 71.6001 54.3 66.6001 57.4 61.7001C57.5 61.4001 57.5 61.2001 57.3 60.9001C54.7 56.8001 52 52.7001 48.4 49.3001C41.5 42.7001 33.4 40.5001 24.3 43.4001C16.8 45.9001 12 51.2001 10.9 59.2001C9.8 66.7001 12.7 72.7001 18.7 77.2001C22.7 80.1001 27.2 81.3001 32.1 81.2001ZM95.5 81.2001C97.7 81.2001 99.9 81.1001 102 80.5001C109.9 78.1001 115.1 73.2001 116.6 65.0001C118.1 56.9001 115 50.4001 108.2 45.8001C100.7 40.6001 89.8 41.1001 82.2 46.8001C77.1 50.6001 73.7 55.7001 70.3 61.0001C70.1 61.3001 70.2 61.5001 70.3 61.8001C73 66.1001 75.7 70.4001 79.2 74.1001C83.6 78.8001 88.9 81.5001 95.5 81.2001Z" fill="#00979C"/>
<path fill-rule="evenodd" clip-rule="evenodd" d="M32 58.5C35.2 58.5 38.5 58.6 41.7 58.5C42.5 58.5 42.6 58.7 42.6 59.5C42.5 60.4 42.5 61.3 42.6 62.2C42.7 63 42.5 63.2 41.6 63.2H28.8C26.6 63.2 24.4 63.1 22.2 63.2C21.5 63.2 21.3 63 21.3 62.2C21.4 61.3 21.4 60.4 21.3 59.4C21.3 58.7 21.5 58.5 22.2 58.5C25.4 58.6 28.7 58.5 32 58.5ZM95 52.1C95.8 52.1 96.6 52.2 97.3 52.1C97.8 52.1 98 52.3 98 52.8C97.9 54.2 98 55.6 97.9 57C97.9 57.7 98.1 57.9 98.8 57.9C100.1 57.8 101.5 57.9 102.9 57.8C103.5 57.8 103.7 57.9 103.7 58.6V63.2C103.7 63.7 103.5 63.9 103 63.9C101.6 63.8 100.2 63.9 98.7 63.8C98.1 63.8 97.9 64 97.9 64.6C98 66 97.9 67.4 98 68.8C98 69.4 97.8 69.7 97.2 69.7C95.7 69.6 94.2 69.6 92.7 69.7C92.1 69.7 91.9 69.5 91.9 68.9C92 67.4 91.9 66 92 64.5C92 64 91.8 63.8 91.3 63.8C89.9 63.9 88.5 63.8 87.1 63.9C86.3 63.9 86.2 63.6 86.2 63C86.2 61.6 86.3 60.2 86.2 58.8C86.1 58 86.5 57.8 87.2 57.8C88.6 57.9 89.9 57.8 91.3 57.9C91.8 57.9 92 57.7 92 57.2C91.9 55.8 92 54.3 91.9 52.9C91.9 52.3 92.1 52.1 92.7 52.1C93.5 52.2 94.2 52.1 95 52.1ZM124.852 24.477C124.719 24.676 124.672 24.742 124.629 24.809C124.387 25.172 124.574 25.906 123.965 25.895C123.425 25.883 123.562 25.211 123.371 24.844C123.321 24.746 123.261 24.656 123.094 24.383C123.094 24.887 123.102 25.172 123.094 25.461C123.086 25.656 123.129 25.902 122.82 25.918C122.508 25.934 122.527 25.684 122.523 25.488C122.516 24.808 122.516 24.133 122.52 23.457C122.52 23.227 122.484 22.961 122.844 22.953C123.114 22.949 123.348 22.938 123.461 23.289C123.605 23.719 123.656 24.199 123.988 24.613C124.305 24.211 124.359 23.746 124.48 23.32C124.582 22.973 124.797 22.95 125.078 22.95C125.434 22.953 125.418 23.203 125.422 23.438C125.426 24.118 125.426 24.793 125.418 25.473C125.414 25.664 125.441 25.918 125.137 25.922C124.832 25.922 124.855 25.68 124.852 25.48C124.844 25.191 124.852 24.906 124.852 24.477ZM121.14 22.945C121.227 22.945 121.32 22.93 121.402 22.945C121.727 23.008 122.23 22.758 122.336 23.145C122.48 23.688 121.91 23.415 121.668 23.531C121.426 23.648 121.473 23.863 121.468 24.059C121.457 24.527 121.461 24.996 121.461 25.465C121.461 25.723 121.411 25.938 121.078 25.925C120.773 25.915 120.785 25.691 120.785 25.488C120.776 25.0494 120.775 24.6107 120.781 24.172C120.793 23.797 120.797 23.445 120.258 23.496C120.07 23.512 119.906 23.457 119.906 23.219C119.906 22.891 120.16 22.957 120.348 22.949C120.613 22.937 120.875 22.945 121.141 22.945H121.14Z" fill="#00979C"/>
</svg>
