<svg xmlns="http://www.w3.org/2000/svg" width="128" height="128" fill="none" viewBox="0 0 128 128"><path fill="#F75A01" d="M67.9525 122.587C63.5557 120.313 60.4708 115.055 60.4624 109.821C60.454 104.107 58.743 101.581 54.8823 101.581C52.9049 101.581 49.3456 104.559 49.3456 106.213C49.3456 107.109 49.282 107.108 48.2338 106.183C45.1666 103.478 42.9154 95.1791 43.7172 89.5338C44.266 85.6704 44.4514 85.4893 46.1565 87.1512C52.5007 93.3345 71.7659 94.5138 82.2054 89.3578C85.7662 87.5992 86.1507 88.0032 85.8517 93.1883C85.4822 99.5961 83.1707 102.9 75.4547 108.051C68.7778 112.508 66.8508 116.373 68.806 121.385C69.4985 123.16 69.381 123.325 67.9525 122.587Z"/><path fill="#000" fill-rule="evenodd" d="M49.3567 5.06424C45.8238 6.79422 45.6878 7.18145 22.6394 81.1407C22.1302 82.7749 21.8218 83.6744 22.112 83.9552C22.474 84.3055 23.7673 83.6934 26.7636 82.3441C32.0462 79.9653 39.8982 77.4419 44.7022 76.5792C45.8041 76.3813 46.5484 76.4216 47.1719 76.1665C49.0587 75.3947 49.8389 71.9182 56.0721 50.9534C59.791 38.4454 63.0796 27.9069 63.3801 27.5346C65.0793 25.4296 65.742 27.0455 72.9873 50.9625C76.8651 63.7634 80.2217 74.5709 80.4462 74.9792C80.6708 75.3875 83.6287 76.403 87.0193 77.236C91.9118 78.4379 100.859 81.584 106.43 84.0612C106.591 84.1328 106.736 84.2222 106.822 84.1829C107.304 83.964 105.966 79.7413 95.4666 46.0883C83.4919 7.70607 83.0989 6.67274 79.8623 5.06424C77.0071 3.64525 52.2545 3.64525 49.3567 5.06424Z" clip-rule="evenodd"/><path stroke="#DEDEDE" stroke-width="2" d="M104.304 77.9607C104.977 80.2014 105.396 81.6712 105.638 82.6263C100.009 80.2265 91.8789 77.4001 87.2579 76.2649C85.5852 75.854 84.0276 75.3999 82.8702 75.0026C82.2889 74.803 81.8268 74.6239 81.5074 74.4777C81.4129 74.4344 81.3384 74.3974 81.2814 74.367C81.251 74.2806 81.2133 74.1706 81.1682 74.0365C81.0496 73.6837 80.8867 73.1834 80.6837 72.5496C80.2782 71.283 79.7174 69.497 79.0417 67.3215C77.6907 62.9713 75.8828 57.0715 73.9443 50.6726C70.3302 38.742 68.3359 32.2975 67.0291 29.1109C66.7004 28.3091 66.4001 27.6755 66.1121 27.1988C65.8395 26.7478 65.5069 26.3142 65.0632 26.0688C64.8204 25.9345 64.5421 25.8553 64.241 25.8661C63.9461 25.8766 63.693 25.9711 63.4901 26.0862C63.1176 26.2975 62.821 26.6352 62.6019 26.9065L63.3801 27.5346L62.6019 26.9065C62.5159 27.0131 62.4619 27.1247 62.4446 27.1604L62.4434 27.1627C62.4159 27.2194 62.3893 27.2809 62.3648 27.3405C62.3151 27.461 62.2568 27.6152 62.1919 27.7946C62.0613 28.1558 61.8903 28.6571 61.685 29.2779C61.2737 30.5216 60.7163 32.2709 60.0534 34.3952C58.7271 38.6452 56.9739 44.4113 55.1136 50.6685C54.3012 53.4009 53.5821 55.8338 52.9416 58.0008C51.12 64.1641 49.9341 68.1763 49.0446 70.8126C48.4413 72.6004 47.9977 73.6821 47.614 74.353C47.2467 74.9952 46.9918 75.1598 46.7933 75.241C46.6192 75.3122 46.3972 75.3551 46.0014 75.401C45.9257 75.4097 45.844 75.4186 45.7569 75.428C45.4179 75.4648 44.996 75.5104 44.5254 75.595C39.6275 76.4745 31.6968 79.026 26.353 81.4323C26.1954 81.5033 26.043 81.572 25.8957 81.6384C24.6691 82.1913 23.7952 82.5853 23.1689 82.8242C23.2518 82.5337 23.3613 82.1836 23.4947 81.7568C23.5265 81.6551 23.5597 81.5489 23.5942 81.4382C35.1223 44.446 40.9109 25.884 44.2599 16.3478C45.9409 11.5613 46.9794 9.13324 47.7881 7.79875C48.1816 7.14938 48.4984 6.79791 48.7778 6.56631C49.0631 6.32987 49.3531 6.17949 49.7965 5.96234L49.3567 5.06424L49.7965 5.96234C49.9952 5.86503 50.5455 5.7242 51.5197 5.58916C52.4453 5.46086 53.6341 5.35192 55.0081 5.26402C57.7534 5.08839 61.1861 5 64.6255 5C68.065 5 71.4949 5.0884 74.2348 5.26401C75.6061 5.35191 76.7913 5.46083 77.7128 5.58908C78.6843 5.72431 79.2265 5.86493 79.4173 5.95974C80.1617 6.3297 80.6325 6.60871 81.1765 7.34805C81.7692 8.15342 82.4567 9.52238 83.453 12.1416C85.4387 17.3621 88.5185 27.1755 94.512 46.3862C94.8904 47.5991 95.2569 48.7737 95.6118 49.9113C100.182 64.5588 102.834 73.0586 104.304 77.9607ZM23 83.6004C23 83.6002 23 83.6001 23 83.6L23 83.6004ZM22.3989 83.053C22.3992 83.0526 22.4051 83.0521 22.4155 83.0523C22.4038 83.0534 22.3986 83.0533 22.3989 83.053Z"/></svg>