<svg width="128" height="128" viewBox="0 0 128 128" fill="none" xmlns="http://www.w3.org/2000/svg">
<path d="M67.1 2.90001L115.4 30.7C116.3 31.3 117.2 32.2 117.8 33.4C118.3 34.3 118.2 35.4 118.2 36.3V92C118.2 93.9 117 96.4 115.3 97.4L67.3 125.3C66.5 125.7 65.4 126 64.2 126C63 126 61.9 125.8 61.1 125.3L12.9 97.4C12.2 97 11.5 96.3 11 95.5C10.2 94.4 10 93 10 91.9V36.2C10 34.3 11.2 31.8 12.9 30.8L60.9 2.90001C61.7 2.50001 62.8 2.20001 64 2.20001C65.2 2.20001 66.3 2.40001 67.1 2.90001Z" fill="#9B4F96"/>
<path d="M82.8 75.6C78.6 83 70.6 88 61.5 88C48 88 37 77 37 63.5C37 50 48 39 61.5 39C70.6 39 78.6 44 82.8 51.5L95.8 44C89 32.1 76.2 24 61.5 24C39.7 24 22 41.7 22 63.5C22 85.3 39.7 103 61.5 103C76.1 103 88.9 95 95.7 83.2L82.8 75.6ZM94.5 65.7L95.4 61.4H91.2V56.7H96.3L97.5 50.5H102.4L101.2 56.6H105L106.2 50.5H111L109.8 56.6H112.2V61.3H108.9L108 65.6H112.2V70.3H107.1L105.9 76.3H101L102.2 70.3H98.4L97.2 76.3H92.4L93.6 70.3H91.2V65.6H94.5V65.7ZM99.3 65.7H103.1L104 61.4H100.2L99.3 65.7Z" fill="white"/>
</svg>
