<svg width="128" height="128" viewBox="0 0 128 128" fill="none" xmlns="http://www.w3.org/2000/svg">
<path d="M28.4731 99.5257L7.94712 78.9998C5.51594 76.5005 4 72.9724 4 69.526C4 67.9306 4.90162 65.4347 5.57839 63.9994L24.5259 24.5259L28.4731 99.5257Z" fill="#01579B"/>
<path d="M98.7366 28.4731L78.2106 7.94712C76.4176 6.1473 72.684 4 69.526 4C66.8121 4 64.1481 4.54279 62.421 5.57839L24.5259 24.5259L98.7366 28.4731Z" fill="#40C4FF"/>
<path d="M52.9472 123.999H102.684V102.684L65.5789 90.8412L31.631 102.684L52.9472 123.999Z" fill="#40C4FF"/>
<path d="M24.5259 88.4724C24.5259 94.8053 25.3196 96.3587 28.473 99.5246L31.6309 102.683H102.684L67.9465 63.2102L24.5259 24.5259V88.4724Z" fill="#29B6F6"/>
<path d="M87.6833 24.5259H24.5259L102.684 102.684H123.999V53.7364L98.7366 28.473C95.188 24.9108 92.0369 24.5259 87.6833 24.5259Z" fill="#01579B"/>
<path opacity="0.2" d="M29.2634 100.315C26.1055 97.1445 25.3163 94.0207 25.3163 88.4724V25.3151L24.5271 24.5259V88.4724C24.5259 94.0207 24.5259 95.5593 29.2634 100.315Z" fill="white"/>
<path opacity="0.2" d="M123.21 52.9473V101.895H101.894L102.684 102.684H124V53.7365L123.21 52.9473Z" fill="#263238"/>
<path opacity="0.2" d="M98.7366 28.473C94.8235 24.5599 91.6133 24.5259 86.8941 24.5259H24.5259L25.3151 25.3151H86.8941C89.2537 25.3151 95.1971 24.921 98.7366 28.473Z" fill="white"/>
<path opacity="0.2" d="M123.563 52.594L123.563 52.5937L99.0902 28.1195L78.5649 7.59424C77.6235 6.64928 76.1944 5.632 74.6005 4.84977C73.0093 4.06885 71.2087 3.5 69.5261 3.5C66.7728 3.5 64.0155 4.04609 62.1806 5.13958L24.3023 24.0787L24.1492 24.1553L24.0752 24.3096L5.12762 63.7831L5.12615 63.7862C4.77824 64.524 4.37498 65.5284 4.05771 66.5546C3.74331 67.5715 3.5 68.6518 3.5 69.5261C3.5 73.1112 5.07288 76.761 7.58864 79.3484L7.58858 79.3485L7.59485 79.3547L26.4927 98.1164C26.9565 98.6795 27.4941 99.2516 28.1189 99.8787L28.1195 99.8793L28.9087 100.669L31.2774 103.037L51.8034 123.563L52.5926 124.352L52.739 124.499H52.9461H101.893H102.683H103.183V123.999V103.184H123.998H124.498V102.684V102.627V53.7365V53.5296L124.352 53.3832L123.563 52.594Z" fill="url(#paint0_radial_401_63)" stroke="#757575"/>
<defs>
<radialGradient id="paint0_radial_401_63" cx="0" cy="0" r="1" gradientUnits="userSpaceOnUse" gradientTransform="translate(63.9997 63.9995) scale(59.9997 59.9997)">
<stop stop-color="white" stop-opacity="0.1"/>
<stop offset="1" stop-color="white" stop-opacity="0"/>
</radialGradient>
</defs>
</svg>
