<svg width="128" height="128" viewBox="0 0 128 128" fill="none" xmlns="http://www.w3.org/2000/svg">
<path d="M64.6335 100.145V77.6639V77.1639H64.1335H40.7867H40.2867V77.6639V100.155L23.5999 100.155V85.7968V85.2968H23.0999H8.24697H7.74697V85.7968V100.655V101.155H8.24697H22.5999V118.693V119.193H23.0999H40.7867H41.2867V118.693V101.155H63.2812V124V124.5H63.7812C103.368 124.5 134.397 86.3342 121.563 44.6196L121.562 44.617C115.854 26.4205 101.583 12.1504 83.387 6.44006L83.3843 6.43923C41.6657 -6.39541 3.5 24.6297 3.5 63.8659V64.3659H4H27.3469H27.8469V63.8659C27.8469 39.7934 51.9218 20.9539 77.0522 30.0255L77.0537 30.0261C86.8123 33.5131 94.1319 41.178 97.6222 50.5978C106.936 75.7852 88.6437 99.593 64.6335 100.145Z" fill="#0080FF" stroke="#757575"/>
</svg>
