<svg width="128" height="128" viewBox="0 0 128 128" fill="none" xmlns="http://www.w3.org/2000/svg">
<path d="M53.3616 4C33.8042 4 13.0103 9.81155 13.0103 20.674V39.8449C13.0814 41.2037 13.4373 42.5322 14.0549 43.7436C14.6725 44.955 15.5379 46.022 16.5944 46.8748C15.5247 47.7414 14.6517 48.8272 14.0336 50.0594C13.4155 51.2917 13.0667 52.6422 13.0103 54.0206V73.0757C13.0652 74.4544 13.4135 75.8053 14.0317 77.0379C14.6498 78.2704 15.5237 79.3559 16.5944 80.2215C15.5246 81.0882 14.6514 82.1742 14.0333 83.4067C13.4152 84.6393 13.0665 85.99 13.0103 87.3687V106.425C12.9966 106.59 12.9966 106.757 13.0103 106.922C13.6501 117.38 34.0642 123 53.3616 123C72.6603 123 93.073 117.38 93.7142 106.876C93.7378 106.709 93.7378 106.54 93.7142 106.373V87.317C93.6687 85.9364 93.3246 84.5823 92.7057 83.3484C92.0868 82.1145 91.208 81.0304 90.1301 80.1712C91.2009 79.3056 92.0747 78.2201 92.6929 76.9876C93.3111 75.7551 93.6593 74.4041 93.7142 73.0254V70.7407L78.026 86.4601C80.8483 85.6695 83.5714 84.5583 86.1427 83.1482C86.894 83.6161 87.5353 84.2418 88.0227 84.9822C88.5101 85.7225 88.8319 86.56 88.966 87.4371C88.966 91.7971 79.7589 96.5382 66.0874 98.4684C61.8688 99.0398 57.6183 99.3409 53.3616 99.37H50.9903C31.8112 98.9178 17.7585 92.8439 17.7585 87.4608C17.8939 86.584 18.2168 85.747 18.7051 85.0074C19.1935 84.2678 19.8356 83.643 20.5874 83.1761C28.0407 87.3449 40.1184 89.8195 53.363 89.8195H53.6272L54.954 85.0561H53.363C40.3089 85.0561 28.2062 82.4573 21.7738 78.361C19.2105 76.6695 17.7822 74.8398 17.7585 73.2431V62.2132C25.0227 67.7875 39.5023 70.6947 53.363 70.6947C55.2392 70.6947 57.1181 70.6947 58.9456 70.5272L60.2947 65.7624C57.9206 65.9299 55.7134 65.9996 53.363 65.9996C32.9975 65.9996 17.7585 59.7359 17.7585 54.0904C17.8933 53.2129 18.216 52.3751 18.7043 51.6347C19.1927 50.8943 19.8351 50.2689 20.5874 49.8015C27.1381 53.4931 37.1991 55.8029 48.6162 56.3277L48.7372 51.5643C37.5093 51.0158 27.3745 48.5873 21.7738 44.9907C19.2342 43.3466 17.8072 41.4876 17.7585 39.8686V28.8666C25.0227 34.4395 39.5023 37.3466 53.363 37.3466H53.8873L56.4046 32.5832H53.363C32.9975 32.5832 17.7585 26.3181 17.7585 20.674C17.7585 15.0285 32.9975 8.76341 53.363 8.76341C60.2226 8.73431 67.0608 9.5342 73.7298 11.1458H86.7616C79.6407 6.78714 67.3433 4 53.3616 4ZM71.1638 15.8869C70.7266 15.8887 70.2983 16.0116 69.9263 16.2421C69.5542 16.4726 69.2528 16.8018 69.0553 17.1932L54.8136 45.7778C54.6145 46.1426 54.514 46.5533 54.5221 46.9691C54.5302 47.385 54.6467 47.7914 54.8599 48.148C55.0731 48.5047 55.3756 48.7991 55.7374 49.002C56.0992 49.205 56.5076 49.3093 56.922 49.3047H70.3571L57.0194 93.8683C56.8681 94.3815 56.8933 94.9309 57.0912 95.4279C57.289 95.9249 57.6478 96.3406 58.1098 96.608C58.4689 96.8225 58.8782 96.938 59.2961 96.9429C59.6417 96.95 59.9847 96.8812 60.3011 96.7414C60.6175 96.6015 60.8996 96.3941 61.1278 96.1334L113.347 41.3494C113.666 41.0122 113.88 40.5886 113.962 40.1308C114.045 39.673 113.991 39.201 113.81 38.7732C113.628 38.3453 113.325 37.9802 112.939 37.723C112.552 37.4658 112.1 37.3277 111.636 37.3257H98.3219L104.396 19.0048C104.514 18.6378 104.543 18.2473 104.478 17.8669C104.413 17.4865 104.258 17.1275 104.024 16.8209C103.79 16.5143 103.486 16.2693 103.137 16.1068C102.788 15.9443 102.406 15.8693 102.021 15.8883L71.1638 15.8869ZM72.4948 20.674H98.6042L92.5265 38.9656C92.4016 39.3343 92.3686 39.7281 92.4305 40.1125C92.4924 40.497 92.6473 40.8603 92.8816 41.1707C93.1159 41.4812 93.4224 41.7292 93.7744 41.8932C94.1264 42.0572 94.513 42.1322 94.9005 42.1114H105.962L64.4003 85.6981L75.8188 47.5866C75.9215 47.232 75.9407 46.8583 75.8748 46.495C75.8089 46.1317 75.6598 45.7887 75.4391 45.4931C75.2178 45.1969 74.9307 44.9566 74.6007 44.7911C74.2707 44.6256 73.9068 44.5396 73.5379 44.5399H60.7704L72.4948 20.674ZM24.878 36.8916C24.4885 36.8916 24.1027 36.9686 23.7428 37.1183C23.3829 37.2679 23.0558 37.4871 22.7803 37.7636C22.5049 38.04 22.2864 38.3682 22.1373 38.7294C21.9882 39.0905 21.9115 39.4777 21.9115 39.8686C21.9115 40.2595 21.9882 40.6466 22.1373 41.0078C22.2864 41.369 22.5049 41.6972 22.7803 41.9736C23.0558 42.2501 23.3829 42.4693 23.7428 42.6189C24.1027 42.7685 24.4885 42.8455 24.878 42.8455C25.2677 42.8457 25.6536 42.7689 26.0137 42.6193C26.3738 42.4698 26.701 42.2506 26.9766 41.9741C27.2522 41.6977 27.4709 41.3694 27.62 41.0081C27.7692 40.6469 27.846 40.2597 27.846 39.8686C27.846 39.4775 27.7692 39.0903 27.62 38.729C27.4709 38.3678 27.2522 38.0395 26.9766 37.7631C26.701 37.4866 26.3738 37.2674 26.0137 37.1179C25.6536 36.9683 25.2677 36.8915 24.878 36.8916ZM24.878 70.2383C24.4885 70.2383 24.1027 70.3153 23.7428 70.4649C23.3829 70.6145 23.0558 70.8338 22.7803 71.1102C22.5049 71.3866 22.2864 71.7148 22.1373 72.076C21.9882 72.4372 21.9115 72.8243 21.9115 73.2152C21.9113 73.6063 21.9879 73.9935 22.1369 74.3549C22.2859 74.7162 22.5044 75.0446 22.7799 75.3212C23.0553 75.5977 23.3824 75.8171 23.7424 75.9668C24.1025 76.1165 24.4883 76.1936 24.878 76.1936C25.2678 76.1938 25.6539 76.1169 26.014 75.9672C26.3742 75.8176 26.7015 75.5982 26.9771 75.3216C27.2527 75.045 27.4714 74.7166 27.6204 74.3552C27.7695 73.9938 27.8462 73.6064 27.846 73.2152C27.846 72.8242 27.7692 72.4369 27.62 72.0757C27.4709 71.7144 27.2522 71.3862 26.9766 71.1097C26.701 70.8333 26.3738 70.614 26.0137 70.4645C25.6536 70.315 25.2677 70.2381 24.878 70.2383ZM17.7571 95.5138C25.0213 101.041 39.5009 103.944 53.3616 103.944C67.2237 103.944 81.7033 101.041 88.966 95.5138V106.47C88.966 112.091 73.7284 118.379 53.3616 118.379C32.9961 118.379 17.7571 112.163 17.7571 106.47V95.5138ZM24.878 103.585C24.4883 103.585 24.1025 103.662 23.7424 103.812C23.3824 103.961 23.0553 104.181 22.7799 104.457C22.5044 104.734 22.2859 105.062 22.1369 105.424C21.9879 105.785 21.9113 106.172 21.9115 106.563C21.9115 107.353 22.224 108.11 22.7803 108.668C23.3367 109.227 24.0912 109.54 24.878 109.54C25.2677 109.54 25.6536 109.464 26.0137 109.314C26.3738 109.164 26.701 108.945 26.9766 108.669C27.2522 108.392 27.4709 108.064 27.62 107.703C27.7692 107.342 27.846 106.954 27.846 106.563C27.8462 106.172 27.7695 105.785 27.6204 105.423C27.4714 105.062 27.2527 104.733 26.9771 104.457C26.7015 104.18 26.3742 103.961 26.014 103.811C25.6539 103.662 25.2678 103.585 24.878 103.585Z" fill="#527FFF"/>
</svg>
