<svg xmlns="http://www.w3.org/2000/svg" width="128" height="128" fill="none" viewBox="0 0 128 128"><path fill="#AEAEAE" stroke="#000" d="M120.177 94.7157L120.798 94.4804L120.4 93.9485C118.345 91.202 116.305 88.4735 114.275 85.7588C108.805 78.4411 103.409 71.2236 97.9806 64.023L97.9512 63.9841L97.9149 63.9515C97.6411 63.7064 97.4221 63.4062 97.2721 63.0707C97.1222 62.7351 97.0447 62.3717 97.0447 62.0042C97.0447 61.6367 97.1222 61.2733 97.2721 60.9377C97.4221 60.6022 97.6411 60.302 97.9149 60.0569L97.945 60.0299L97.9704 59.9985C101.2 55.9991 104.291 51.8996 107.38 47.8034C108.169 46.7569 108.959 45.7105 109.75 44.6662L109.75 44.6653L118.438 33.144L118.835 32.6164L118.219 32.377C116.574 31.7376 114.752 31.7253 113.098 32.3423C111.455 32.9555 110.093 34.1477 109.267 35.6943C105.342 41.2483 101.215 46.6645 97.0045 52.1915C95.6483 53.9717 94.2832 55.7634 92.9134 57.5749C91.2857 55.3958 89.6588 53.2534 88.0455 51.1288C84.1022 45.9355 80.2394 40.8484 76.6409 35.5913C75.6861 34.0373 74.2253 32.8592 72.504 32.2552C70.7786 31.6498 68.8972 31.6583 67.1774 32.2793L66.5343 32.5115L66.9506 33.054L89.1079 61.9307L65.265 93.9181L64.8619 94.4589L65.4964 94.6874C67.1738 95.2915 69.0135 95.2654 70.673 94.6138C72.3229 93.9661 73.6827 92.7442 74.5027 91.1735C78.9097 84.7284 83.6325 78.4623 88.4413 72.0821C89.8739 70.1813 91.3141 68.2705 92.7559 66.3417L94.6859 68.9151C94.6867 68.9161 94.6874 68.9172 94.6882 68.9182C96.3012 71.1374 97.9313 73.3393 99.5594 75.5386C103.374 80.6915 107.178 85.8298 110.727 91.141C111.593 92.7823 113.028 94.052 114.763 94.7119C116.506 95.375 118.433 95.3763 120.177 94.7157ZM7.51067 61.4188L7.5 61.4696V61.5215C7.5 63.288 7.51039 65.0959 7.53117 66.9453L7.53174 66.9965L7.54269 67.0465C7.60828 67.3464 7.69638 67.6745 7.78172 67.9923C7.83762 68.2005 7.89233 68.4043 7.93875 68.5928C8.06395 69.1012 8.15388 69.5845 8.15388 70.0535V70.073L8.15539 70.0924C8.68451 76.8758 11.4185 83.2997 15.94 88.3838L15.9548 88.4005L15.971 88.4157C20.545 92.7177 26.3621 95.4632 32.5904 96.2596C38.8188 97.0559 45.1394 95.8624 50.6486 92.8496L50.6572 92.8449L50.6657 92.8398C54.0088 90.8364 56.8543 88.1012 58.9882 84.8397C61.1221 81.5782 62.4889 77.8753 62.9858 74.0096L63.0396 73.5909L62.6358 73.4676C61.1327 73.0087 59.8481 72.8653 58.7918 73.3561C57.7193 73.8545 57.0293 74.9342 56.5322 76.538L56.5274 76.5534L56.5236 76.5691C55.8066 79.55 54.3587 82.3055 52.3104 84.5868C50.2632 86.8667 47.6809 88.6013 44.7962 89.6341C35.7958 92.638 27.8408 91.1816 22.2385 86.6056C16.7205 82.0985 13.4095 74.5029 13.6828 64.9486H63.0192H63.4999L63.5188 64.4682C63.9576 53.3091 61.7347 43.2729 52.7103 36.1864C37.3002 24.0802 14.9539 32.2449 9.48052 51.7014C8.89438 53.7632 8.51045 55.9453 8.13954 58.0533C7.93637 59.208 7.73712 60.3404 7.51067 61.4188ZM36.8882 36.052L36.8913 36.052C48.4956 36.1418 57.3263 45.8018 57.8038 59.6826H13.7519C14.1286 52.5945 16.6227 46.6937 20.6007 42.5666C24.6611 38.3541 30.2943 35.9604 36.8882 36.052Z"/></svg>