<svg width="128" height="128" viewBox="0 0 128 128" fill="none" xmlns="http://www.w3.org/2000/svg">
<path d="M46.026 101.657L45.9649 101.608L45.8919 101.581C45.8356 101.56 45.7842 101.542 45.7439 101.529L45.7175 101.438L45.6203 101.344C45.1649 100.909 44.7724 100.729 44.4294 100.59C41.0903 97.1521 37.7589 93.72 34.4045 89.9625C45.2547 84.1721 56.1289 78.7315 66.8483 73.3723C67.9124 74.6863 68.9458 76.0231 69.9759 77.3556C72.4421 80.5458 74.8897 83.712 77.696 86.4849C84.5789 93.2859 93.231 96.6006 102.891 96.5526C105.493 96.5396 108.267 95.4074 110.508 94.1367C113.397 92.4986 115.832 92.0551 117.916 92.7722C119.905 93.4566 121.701 95.2412 123.301 98.3814C122.18 98.8195 121.18 99.487 120.243 100.206C119.778 100.563 119.321 100.939 118.871 101.308C118.795 101.371 118.719 101.433 118.644 101.495C118.118 101.926 117.599 102.345 117.069 102.73C116.008 103.5 114.927 104.111 113.713 104.38C112.508 104.646 111.135 104.583 109.477 103.942C109.259 103.858 109.038 103.859 108.853 103.887C108.666 103.915 108.482 103.974 108.318 104.037C108.152 104.101 107.986 104.176 107.838 104.243L107.824 104.25C107.675 104.317 107.547 104.376 107.428 104.422C87.8231 112.068 68.334 112.087 48.4775 103.602C47.8206 103.161 47.3693 102.778 46.877 102.361C46.6169 102.141 46.3454 101.911 46.026 101.657Z" fill="#3BA9BF" stroke="#757575"/>
<path d="M58.1306 54.3434C58.8639 54.0216 59.6324 53.6843 60.4513 53.3264C60.7624 54.312 61.0827 55.2754 61.3983 56.2244C62.3458 59.0742 63.2505 61.7951 63.7359 64.6049C63.7619 64.7551 63.727 64.9987 63.5771 65.3349C63.4319 65.6607 63.2011 66.0232 62.912 66.386C62.3293 67.1177 61.5654 67.7826 60.938 68.1114C55.4227 71.0023 49.8878 73.8161 44.2957 76.6589C39.3951 79.1502 34.4506 81.6639 29.4367 84.2713L29.357 84.3128L29.2967 84.3795C29.285 84.3924 29.2771 84.3986 29.2733 84.4012C29.2702 84.4016 29.264 84.4021 29.2534 84.4017C29.2282 84.4009 29.2036 84.3974 29.1543 84.3896C27.4541 82.0974 25.8246 79.7987 24.1424 77.4256C23.1931 76.0866 22.2272 74.7239 21.2222 73.3253C20.95 72.4196 20.8889 71.6976 20.8518 70.6534C31.3273 65.8017 41.799 61.3422 52.2747 56.8809C52.5882 56.7474 52.9018 56.6138 53.2154 56.4803C54.7888 55.8102 56.3564 55.1222 58.1306 54.3434ZM29.2706 84.4028C29.2704 84.4029 29.2709 84.4025 29.2721 84.402L29.2706 84.4028Z" fill="#3BA9BF" stroke="#757575"/>
<path d="M50.9966 18.0657C52.6741 17.4495 54.6031 17.4706 56.8041 17.5263C57.2136 21.3657 57.512 25.1349 57.8076 28.8691L57.8131 28.9378C58.1215 32.8328 58.4276 36.6907 58.8542 40.5366C59.0752 42.5295 59.0268 43.9772 58.4665 45.1309C57.9159 46.2647 56.8222 47.2072 54.7218 48.0646C45.8483 51.6871 37.1207 55.6795 28.2562 59.7345C24.9437 61.2498 21.612 62.7739 18.2465 64.2906C16.7586 62.7425 15.5768 61.024 14.1756 58.9847C13.9306 58.1356 13.7206 57.2856 13.5097 56.4319C13.417 56.0569 13.3242 55.6812 13.2281 55.3046C12.9096 54.0555 12.5592 52.8121 12.074 51.6319C11.1157 49.301 9.63035 47.2166 6.83337 45.745C5.88509 43.2431 5.18067 40.9871 4.57629 38.3993C9.81919 35.8361 15.0172 33.43 20.2668 31C23.4132 29.5435 26.5781 28.0785 29.7824 26.5659C37.0205 23.4877 43.9631 20.6494 50.9966 18.0657Z" fill="#3BA9BF" stroke="#757575"/>
</svg>
