<svg width="128" height="128" viewBox="0 0 128 128" fill="none" xmlns="http://www.w3.org/2000/svg">
<path d="M14.6459 63.3747L14.2898 63.7319L14.6501 64.0849L33.3792 82.4356L33.7327 82.782L34.0827 82.432L113.161 3.35355L114.015 2.5H112.808H75.5385H75.331L75.1844 2.647L14.6459 63.3747ZM75.1829 124.429L75.3297 124.577H75.5385H112.808H114.015L113.161 123.724L81.2554 91.8178L113.165 59.2535L113.998 58.4035H112.808H75.5385H75.3301L75.1834 58.5515L42.9277 91.091L42.5793 91.4425L42.9272 91.7945L75.1829 124.429Z" fill="#3FB6D3" stroke="#757575"/>
<path d="M81 91.9547L62.2183 73.0771L44 91.5771L62.2183 110.077L81 91.9547Z" fill="#27AACD"/>
<path d="M113 124.077L80.2237 92.0771L61 110.095L75.1294 124.077H113Z" fill="#19599A"/>
<path d="M61 110.077L91 102.202L80.4805 92.0771L61 110.077Z" fill="url(#paint0_linear_401_85)"/>
<defs>
<linearGradient id="paint0_linear_401_85" x1="58.8231" y1="113.133" x2="84.9956" y2="96.3377" gradientUnits="userSpaceOnUse">
<stop stop-color="#1B4E94"/>
<stop offset="0.63" stop-color="#1A5497"/>
<stop offset="1" stop-color="#195A9B"/>
</linearGradient>
</defs>
</svg>
