<svg width="128" height="128" viewBox="0 0 128 128" fill="none" xmlns="http://www.w3.org/2000/svg">
<path d="M121.736 58.6552L69.3428 6.26294C66.3275 3.24569 61.4338 3.24569 58.4137 6.26294L47.535 17.1437L61.3359 30.9447C64.5441 29.862 68.2211 30.5882 70.7772 33.1444C73.3467 35.7168 74.0673 39.4252 72.9579 42.6439L86.2588 55.9459C89.4766 54.8365 93.1906 55.5533 95.7591 58.1276C99.3524 61.7181 99.3524 67.5387 95.7591 71.131C94.9052 71.9854 93.8913 72.6631 92.7754 73.1255C91.6595 73.5879 90.4635 73.8259 89.2556 73.8259C88.0477 73.8259 86.8516 73.5879 85.7357 73.1255C84.6198 72.6631 83.6059 71.9854 82.752 71.131C81.4691 69.8473 80.5945 68.2127 80.2385 66.4331C79.8824 64.6534 80.0607 62.8082 80.751 61.1296L68.3475 48.726L68.3456 81.3711C69.2455 81.8143 70.0672 82.4012 70.7782 83.1088C74.3696 86.6993 74.3696 92.518 70.7782 96.1161C67.1859 99.7065 61.3634 99.7065 57.7749 96.1161C54.1835 92.5189 54.1835 86.7002 57.7749 83.1088C58.6353 82.247 59.6587 81.5651 60.7855 81.103V48.1556C59.6578 47.6948 58.6341 47.0124 57.7749 46.1489C55.0543 43.4301 54.3993 39.4375 55.7948 36.0952L42.1888 22.489L6.26358 58.4128C4.81421 59.8626 4 61.8287 4 63.8788C4 65.9289 4.81421 67.895 6.26358 69.3448L58.658 121.737C61.6752 124.754 66.567 124.754 69.589 121.737L121.737 69.5882C123.186 68.1379 124 66.1716 124 64.1215C124 62.0713 123.186 60.1052 121.736 58.6552Z" fill="#F34F29"/>
</svg>
