<svg width="128" height="128" viewBox="0 0 128 128" fill="none" xmlns="http://www.w3.org/2000/svg">
<path fill-rule="evenodd" clip-rule="evenodd" d="M11.156 54.829C10.913 54.829 10.853 54.707 10.974 54.526L12.247 52.889C12.367 52.707 12.671 52.586 12.913 52.586H34.55C34.793 52.586 34.853 52.768 34.732 52.95L33.702 54.526C33.581 54.707 33.278 54.889 33.096 54.889L11.156 54.829ZM2.004 60.404C1.762 60.404 1.701 60.284 1.822 60.101L3.095 58.465C3.216 58.283 3.519 58.162 3.762 58.162H31.398C31.64 58.162 31.762 58.344 31.701 58.526L31.216 59.98C31.156 60.223 30.913 60.344 30.671 60.344L2.004 60.404ZM16.67 65.98C16.428 65.98 16.368 65.798 16.489 65.616L17.337 64.101C17.459 63.919 17.701 63.738 17.944 63.738H30.064C30.307 63.738 30.428 63.919 30.428 64.162L30.308 65.616C30.308 65.859 30.065 66.041 29.883 66.041L16.67 65.98ZM79.58 53.738C75.761 54.708 73.155 55.435 69.398 56.404C68.488 56.647 68.428 56.707 67.64 55.798C66.731 54.768 66.064 54.101 64.792 53.495C60.973 51.617 57.276 52.162 53.822 54.405C49.701 57.071 47.58 61.01 47.64 65.919C47.7 70.768 51.034 74.768 55.822 75.435C59.943 75.98 63.398 74.525 66.125 71.435C66.67 70.768 67.155 70.041 67.761 69.192H56.064C54.792 69.192 54.489 68.404 54.913 67.374C55.701 65.495 57.155 62.344 58.003 60.768C58.186 60.404 58.61 59.798 59.519 59.798H81.579C81.459 61.435 81.459 63.071 81.216 64.708C80.549 69.071 78.913 73.071 76.246 76.586C71.882 82.344 66.186 85.919 58.973 86.889C53.034 87.677 47.519 86.525 42.671 82.889C38.186 79.495 35.641 75.01 34.974 69.435C34.186 62.829 36.125 56.889 40.125 51.677C44.428 46.041 50.125 42.465 57.095 41.192C62.792 40.162 68.246 40.829 73.155 44.162C76.367 46.283 78.67 49.192 80.185 52.707C80.549 53.253 80.307 53.556 79.579 53.737L79.58 53.738Z" fill="#00ACD7"/>
<path d="M99.64 87.253C94.125 87.131 89.094 85.556 84.852 81.919C81.276 78.829 79.034 74.889 78.307 70.222C77.216 63.374 79.094 57.313 83.216 51.92C87.64 46.101 92.973 43.071 100.186 41.798C106.367 40.708 112.186 41.314 117.458 44.889C122.246 48.162 125.215 52.586 126.003 58.404C127.033 66.586 124.67 73.253 119.033 78.95C115.033 83.01 110.124 85.556 104.488 86.707C102.852 87.01 101.215 87.071 99.64 87.253ZM114.064 62.768C114.004 61.98 114.004 61.374 113.882 60.768C112.792 54.768 107.276 51.374 101.519 52.708C95.882 53.98 92.246 57.556 90.913 63.253C89.822 67.98 92.125 72.768 96.488 74.707C99.822 76.162 103.155 75.98 106.367 74.344C111.155 71.859 113.761 67.98 114.064 62.768Z" fill="#00ACD7"/>
</svg>
