<svg width="128" height="128" viewBox="0 0 128 128" fill="none" xmlns="http://www.w3.org/2000/svg">
<circle cx="64" cy="64" r="60" fill="#E434AA"/>
<path d="M30.69 89.1308L27.3645 87.224L64.415 23.5234L67.7383 25.4295L30.69 89.1308Z" fill="white"/>
<path d="M27.3645 82.4019H100.542V86.6075H27.3645V82.4019Z" fill="white"/>
<path d="M64.9941 105.953L28.2056 84.7121L30.1116 81.4094L66.9008 102.653L64.9941 105.953ZM96.9531 50.5898L60.1646 29.3458L62.0706 26.0467L98.8598 47.2871L96.9531 50.5898Z" fill="white"/>
<path d="M30.112 50.4392L28.2056 47.1575L64.9915 26.0467L66.8972 29.3262L30.112 50.4392Z" fill="white"/>
<path d="M96.4032 89.1308L59.6804 25.4295L62.9753 23.5234L99.7009 87.224L96.4032 89.1308ZM29.8878 44.3098H33.6951V86.7984H29.8886L29.8878 44.3098Z" fill="white"/>
<path d="M93.8131 44.5514H97.1776V87.4486H93.8131V44.5514Z" fill="white"/>
<path d="M64.3557 104.271L62.6916 101.431L94.6724 83.243L96.3364 86.083L64.3557 104.271Z" fill="white"/>
<path d="M102.814 88.5C100.614 92.3381 95.7078 93.6481 91.8797 91.4432C88.0508 89.2354 86.7439 84.3172 88.9435 80.4791C91.146 76.641 96.0524 75.331 99.8813 77.5366C103.732 79.7666 105.039 84.6619 102.814 88.5ZM38.9411 51.5209C36.7387 55.359 31.8322 56.6691 28.0033 54.4634C24.1745 52.2557 22.8676 47.3381 25.0679 43.5C27.2704 39.6619 32.1761 38.3519 36.005 40.5568C39.8339 42.7875 41.1407 47.6828 38.9411 51.5209ZM25.093 88.5C22.8898 84.6619 24.1974 79.7666 28.0256 77.5358C31.8544 75.3309 36.7379 76.641 38.9633 80.4791C41.1629 84.3172 39.8561 89.2125 36.0272 91.4432C32.1761 93.6481 27.2926 92.3381 25.093 88.5ZM88.9657 51.5209C86.7661 47.6828 88.073 42.7875 91.9019 40.5568C95.7307 38.3519 100.614 39.6619 102.839 43.5C105.039 47.3381 103.732 52.2334 99.9035 54.4642C96.0746 56.6691 91.1682 55.359 88.9657 51.5209ZM63.9534 111C62.9024 111.001 61.8614 110.794 60.8902 110.391C59.919 109.989 59.0365 109.398 58.2933 108.653C57.5501 107.908 56.9607 107.023 56.559 106.05C56.1572 105.076 55.9508 104.033 55.9518 102.979C55.9508 101.925 56.1572 100.882 56.559 99.9085C56.9607 98.9349 57.5501 98.0503 58.2933 97.3053C59.0365 96.5603 59.919 95.9695 60.8902 95.5668C61.8614 95.164 62.9024 94.9572 63.9534 94.9581C65.0045 94.9572 66.0454 95.164 67.0166 95.5668C67.9879 95.9695 68.8703 96.5603 69.6135 97.3053C70.3568 98.0503 70.9461 98.9349 71.3479 99.9085C71.7497 100.882 71.956 101.925 71.9551 102.979C71.9551 107.392 68.3784 111 63.9534 111ZM63.9534 37.0419C62.9024 37.0428 61.8614 36.836 60.8902 36.4332C59.919 36.0305 59.0365 35.4397 58.2933 34.6947C57.5501 33.9497 56.9607 33.0651 56.559 32.0915C56.1572 31.118 55.9508 30.0745 55.9518 29.0209C55.9508 27.9674 56.1572 26.9239 56.559 25.9503C56.9607 24.9768 57.5501 24.0922 58.2933 23.3472C59.0365 22.6022 59.919 22.0114 60.8902 21.6086C61.8614 21.2059 62.9024 20.9991 63.9534 21C65.0045 20.9991 66.0454 21.2059 67.0166 21.6086C67.9879 22.0114 68.8703 22.6022 69.6135 23.3472C70.3568 24.0922 70.9461 24.9768 71.3479 25.9503C71.7497 26.9239 71.956 27.9674 71.9551 29.0209C71.956 30.0745 71.7497 31.118 71.3479 32.0915C70.9461 33.0651 70.3568 33.9497 69.6135 34.6947C68.8703 35.4397 67.9879 36.0305 67.0166 36.4332C66.0454 36.836 65.0045 37.0428 63.9534 37.0419Z" fill="white"/>
</svg>
