<svg width="128" height="128" viewBox="0 0 128 128" fill="none" xmlns="http://www.w3.org/2000/svg">
<g clip-path="url(#clip0_222_18)">
<circle cx="64" cy="64" r="64" fill="white"/>
<path d="M50.4751 87.6913C50.4751 87.6913 46.5398 89.9813 53.2795 90.754C61.4456 91.6868 65.6187 91.5531 74.6154 89.8525C74.6154 89.8525 76.9855 91.3343 80.2893 92.6189C60.1141 101.262 34.6307 92.1178 50.4751 87.6913ZM48.0084 76.4103C48.0084 76.4103 43.5935 79.6786 50.3389 80.377C59.0623 81.2777 65.9498 81.3512 77.8738 79.0562C77.8738 79.0562 79.5191 80.7279 82.1104 81.6409C57.7225 88.7735 30.5591 82.2023 48.0084 76.4103Z" fill="#0074BD"/>
<path d="M68.7896 57.2712C73.7635 62.9962 67.4853 68.1434 67.4853 68.1434C67.4853 68.1434 80.1068 61.6292 74.3116 53.4679C68.8969 45.8606 64.7461 42.0822 87.2188 29.0486C87.2188 29.0495 51.943 37.8571 68.7896 57.2712Z" fill="#EA2D2E"/>
<path d="M95.4717 96.0365C95.4717 96.0365 98.385 98.4388 92.262 100.295C80.6203 103.822 43.7982 104.885 33.5715 100.437C29.8971 98.8367 36.7903 96.6185 38.959 96.1505C41.2201 95.6609 42.5112 95.7501 42.5112 95.7501C38.4224 92.8714 16.0834 101.405 31.1659 103.853C72.2948 110.52 106.138 100.85 95.4717 96.0365ZM52.3698 64.7199C52.3698 64.7199 33.6417 69.1687 45.7382 70.7859C50.8466 71.4695 61.0255 71.3126 70.5133 70.5168C78.2651 69.8655 86.0441 68.4745 86.0441 68.4745C86.0441 68.4745 83.3132 69.6459 81.3352 70.9948C62.3133 75.9984 25.5754 73.6679 36.153 68.5529C45.0952 64.2279 52.3698 64.7199 52.3698 64.7199ZM85.9665 83.4983C105.301 73.4541 96.3608 63.8011 90.1206 65.1013C88.595 65.4191 87.9106 65.6957 87.9106 65.6957C87.9106 65.6957 88.4786 64.805 89.5617 64.4219C101.906 60.0837 111.398 77.2201 85.5801 84.0077C85.5801 84.006 85.8765 83.7377 85.9665 83.4983Z" fill="#0074BD"/>
<path d="M74.3116 8C74.3116 8 85.0171 18.7121 64.1551 35.179C47.4248 48.3925 60.3403 55.9247 64.1493 64.5342C54.3824 55.7233 47.2184 47.9657 52.0239 40.7464C59.0805 30.1515 78.63 25.0126 74.3116 8Z" fill="#EA2D2E"/>
<path d="M54.2701 110.724C72.8248 111.911 101.326 110.064 102 101.284C102 101.284 100.703 104.612 86.6641 107.253C70.8254 110.235 51.2867 109.887 39.702 107.975C39.702 107.975 42.0754 109.94 54.2701 110.724Z" fill="#0074BD"/>
</g>
<defs>
<clipPath id="clip0_222_18">
<rect width="128" height="128" fill="white"/>
</clipPath>
</defs>
</svg>
