<svg width="128" height="128" viewBox="0 0 128 128" fill="none" xmlns="http://www.w3.org/2000/svg">
<path fill-rule="evenodd" clip-rule="evenodd" d="M1.408 16.408C1.408 8.12373 8.12373 1.408 16.408 1.408H111.592C119.876 1.408 126.592 8.12373 126.592 16.408V111.593C126.592 119.877 119.876 126.593 111.592 126.593H16.408C8.12371 126.593 1.408 119.877 1.408 111.593V16.408ZM69.462 58.943H57.753L57.705 89.215C57.705 90.5167 57.7186 91.7965 57.7317 93.025C57.7832 97.8723 57.8263 101.921 56.991 103.364C55.278 106.922 50.839 106.481 48.816 105.791C46.757 104.779 45.71 103.34 44.497 101.306L44.3997 101.135C44.1157 100.636 43.9056 100.267 43.83 100.235L34.31 106.065C35.893 109.314 38.225 112.134 41.212 113.966C45.674 116.644 51.671 117.465 57.943 116.025C62.025 114.836 65.547 112.373 67.391 108.624C69.6632 104.435 69.5833 99.4947 69.4953 94.0529C69.48 93.1099 69.4645 92.1518 69.461 91.18C69.5011 84.0056 69.488 76.8322 69.475 69.6483V69.6434V69.6386C69.4685 66.0764 69.462 62.5117 69.462 58.943ZM100.675 81.755C111.706 86.228 115.43 91.025 116.347 96.736C117.228 101.651 116.132 104.839 115.967 105.317C111.897 119.239 89.205 119.691 80.137 110.493C79.8632 110.184 79.604 109.895 79.3575 109.621C77.8789 107.977 76.8567 106.84 75.877 104.698L75.8807 104.696C80.6969 101.926 80.6982 101.925 85.385 99.213C87.932 103.128 90.288 105.281 94.524 106.162C100.272 106.864 106.055 104.888 104.758 98.784C103.985 95.8936 100.153 94.2711 95.6848 92.3791C92.4451 91.0074 88.8708 89.494 85.885 87.253C78.674 82.41 76.984 70.642 82.91 63.918C84.885 61.431 88.253 59.576 91.787 58.683L95.475 58.206C102.555 58.063 106.982 59.932 110.231 63.561C111.135 64.477 111.872 65.465 113.253 67.606C112.471 68.1045 111.851 68.4986 111.312 68.8414C109.253 70.1519 108.372 70.7123 104.09 73.485C102.935 70.998 101.02 69.439 98.997 68.761C95.856 67.809 91.893 68.844 91.072 72.164C90.786 73.187 90.846 74.139 91.298 75.829C92.3284 78.1796 95.3237 79.4537 98.4601 80.7878C99.1985 81.102 99.9447 81.4194 100.675 81.755Z" fill="#F0DB4F"/>
<path d="M69.462 58.943H57.753L57.705 89.215C57.705 90.5167 57.7186 91.7965 57.7317 93.025C57.7832 97.8723 57.8263 101.921 56.991 103.364C55.278 106.922 50.839 106.481 48.816 105.791C46.757 104.779 45.71 103.34 44.497 101.306L44.3997 101.135C44.1157 100.636 43.9056 100.267 43.83 100.235L34.31 106.065C35.893 109.314 38.225 112.134 41.212 113.966C45.674 116.644 51.671 117.465 57.943 116.025C62.025 114.836 65.547 112.373 67.391 108.624C69.6632 104.435 69.5833 99.4947 69.4953 94.0529C69.48 93.1099 69.4645 92.1518 69.461 91.18C69.5011 84.0056 69.488 76.8322 69.475 69.6483V69.6434V69.6386C69.4685 66.0764 69.462 62.5117 69.462 58.943Z" fill="#110B09"/>
<path d="M116.347 96.736C115.43 91.025 111.706 86.228 100.675 81.755C99.9447 81.4194 99.1985 81.102 98.4601 80.7878C95.3237 79.4537 92.3284 78.1796 91.298 75.829C90.846 74.139 90.786 73.187 91.072 72.164C91.893 68.844 95.856 67.809 98.997 68.761C101.02 69.439 102.935 70.998 104.09 73.485C108.372 70.7123 109.253 70.1519 111.312 68.8414C111.851 68.4986 112.471 68.1045 113.253 67.606C111.872 65.465 111.135 64.477 110.231 63.561C106.982 59.932 102.555 58.063 95.475 58.206L91.787 58.683C88.253 59.576 84.885 61.431 82.91 63.918C76.984 70.642 78.674 82.41 85.885 87.253C88.8708 89.494 92.4451 91.0074 95.6848 92.3791C100.153 94.2711 103.985 95.8936 104.758 98.784C106.055 104.888 100.272 106.864 94.524 106.162C90.288 105.281 87.932 103.128 85.385 99.213C80.6982 101.925 80.6969 101.926 75.8807 104.696L75.877 104.698C76.8567 106.84 77.8789 107.977 79.3575 109.621C79.604 109.895 79.8632 110.184 80.137 110.493C89.205 119.691 111.897 119.239 115.967 105.317C116.132 104.839 117.228 101.651 116.347 96.736Z" fill="#110B09"/>
</svg>
