<svg width="128" height="128" viewBox="0 0 128 128" fill="none" xmlns="http://www.w3.org/2000/svg">
<path d="M63.7978 4.01064C62.6975 4.06607 61.6195 4.33887 60.627 4.81303L17.3591 25.4869C16.2392 26.0217 15.2552 26.7999 14.4802 27.7636C13.7052 28.7274 13.159 29.8519 12.8824 31.0538L2.20787 77.4924C1.96138 78.5624 1.9338 79.6705 2.12675 80.7512C2.3197 81.8319 2.72927 82.8633 3.33121 83.7842C3.47717 84.0094 3.63414 84.2273 3.80157 84.4372L33.7499 121.673C34.5251 122.637 35.5092 123.415 36.6291 123.949C37.749 124.484 38.9759 124.761 40.2188 124.761L88.2456 124.75C89.488 124.751 90.7146 124.474 91.8345 123.941C92.9544 123.407 93.9387 122.63 94.7145 121.668L124.652 84.4261C125.427 83.4622 125.974 82.3372 126.251 81.1348C126.528 79.9325 126.528 78.6837 126.251 77.4814L115.56 31.0427C115.283 29.8409 114.737 28.7163 113.962 27.7526C113.187 26.7888 112.203 26.0106 111.083 25.4758L67.8097 4.81303C66.5612 4.21657 65.1817 3.94067 63.7978 4.01064Z" fill="#326CE5"/>
<path d="M64.2265 19.8143C62.7963 19.8145 61.6366 21.1027 61.6368 22.6918C61.6368 22.7162 61.6418 22.7395 61.6423 22.7638C61.6402 22.9797 61.6297 23.2398 61.6368 23.4278C61.6709 24.3444 61.8707 25.0459 61.9909 25.8903C62.2088 27.6977 62.3913 29.1959 62.2787 30.5884C62.1691 31.1135 61.7823 31.5938 61.4375 31.9276L61.3767 33.0232C59.8225 33.152 58.2579 33.3878 56.6952 33.7426C49.9707 35.2694 44.1811 38.7332 39.7732 43.41C39.4871 43.2148 38.9868 42.8559 38.838 42.7459C38.3756 42.8084 37.9083 42.951 37.2996 42.5965C36.1406 41.8164 35.0851 40.7395 33.8078 39.4423C33.2226 38.8218 32.7988 38.2309 32.1035 37.6328C31.9456 37.497 31.7046 37.3132 31.528 37.1735C30.9844 36.7401 30.3432 36.5141 29.724 36.4929C28.9279 36.4656 28.1615 36.7769 27.6599 37.4059C26.7683 38.5242 27.0538 40.2335 28.2963 41.2242C28.3089 41.2342 28.3223 41.242 28.335 41.2518C28.5058 41.3902 28.7149 41.5676 28.8718 41.6835C29.6097 42.2282 30.2837 42.5071 31.0189 42.9396C32.5678 43.8961 33.8518 44.6893 34.8703 45.6456C35.268 46.0695 35.3376 46.8166 35.3905 47.1397L36.2205 47.8812C31.777 54.5683 29.7206 62.8282 30.9359 71.2444L29.8513 71.5598C29.5654 71.929 29.1615 72.5098 28.739 72.6832C27.4065 73.1029 25.9068 73.257 24.0962 73.4468C23.2462 73.5175 22.5128 73.4753 21.6116 73.646C21.4133 73.6836 21.1369 73.7556 20.9199 73.8065C20.9124 73.8081 20.9053 73.8103 20.8978 73.812C20.8859 73.8148 20.8704 73.8205 20.859 73.8231C19.3326 74.1919 18.352 75.5949 18.6677 76.9773C18.9834 78.36 20.4744 79.2008 22.01 78.8698C22.0211 78.8673 22.0372 78.8668 22.0488 78.8643C22.0661 78.8603 22.0814 78.8519 22.0986 78.8477C22.3126 78.8007 22.5809 78.7484 22.7681 78.6983C23.6541 78.4611 24.2958 78.1125 25.0923 77.8074C26.8059 77.1928 28.2251 76.6793 29.6078 76.4793C30.1853 76.434 30.7937 76.8356 31.0963 77.005L32.2252 76.8113C34.823 84.8653 40.2671 91.3751 47.1606 95.4598L46.6903 96.5887C46.8598 97.027 47.0468 97.6201 46.9205 98.053C46.4178 99.3565 45.5568 100.732 44.5764 102.266C44.1017 102.975 43.6158 103.525 43.1874 104.336C43.0849 104.53 42.9544 104.828 42.8554 105.033C42.1898 106.457 42.6781 108.097 43.9566 108.713C45.2432 109.332 46.8402 108.679 47.5314 107.252C47.5325 107.25 47.5359 107.249 47.5369 107.247C47.5376 107.245 47.5362 107.243 47.5369 107.241C47.6354 107.039 47.7748 106.773 47.8579 106.583C48.2248 105.742 48.3469 105.022 48.6049 104.209C49.2901 102.487 49.6666 100.681 50.6099 99.556C50.8682 99.2479 51.2893 99.1293 51.7259 99.0124L52.3125 97.95C58.3222 100.257 65.0491 100.876 71.7689 99.35C73.3019 99.0019 74.7818 98.5515 76.2125 98.0108C76.3773 98.3033 76.6837 98.8654 76.7658 99.0069C77.2095 99.1513 77.6938 99.2258 78.0884 99.8093C78.7941 101.015 79.2767 102.441 79.8647 104.164C80.1228 104.977 80.2503 105.698 80.6173 106.538C80.7009 106.73 80.8397 107 80.9382 107.202C81.6279 108.634 83.23 109.289 84.5185 108.669C85.7969 108.053 86.2857 106.413 85.6197 104.989C85.5208 104.784 85.3847 104.486 85.2822 104.292C84.8537 103.481 84.368 102.936 83.8932 102.228C82.9127 100.694 82.0995 99.4195 81.5967 98.116C81.3865 97.4437 81.6322 97.0256 81.796 96.5887C81.6979 96.4763 81.488 95.8414 81.3643 95.5428C88.5284 91.3128 93.8127 84.5602 96.2942 76.7615C96.6293 76.8142 97.2117 76.9172 97.4009 76.9552C97.7904 76.6983 98.1486 76.3631 98.8508 76.4184C100.233 76.6184 101.653 77.132 103.366 77.7465C104.163 78.0516 104.804 78.4058 105.69 78.643C105.878 78.6931 106.146 78.7398 106.36 78.7868C106.377 78.791 106.392 78.7995 106.41 78.8034C106.421 78.806 106.437 78.8064 106.449 78.809C107.984 79.1395 109.475 78.2992 109.791 76.9164C110.106 75.534 109.126 74.1306 107.6 73.7622C107.377 73.7117 107.063 73.626 106.847 73.5852C105.946 73.4145 105.212 73.4566 104.362 73.3859C102.552 73.1962 101.052 73.0419 99.7196 72.6223C99.1762 72.4115 98.7897 71.765 98.6017 71.499L97.5559 71.1946C98.0981 67.2715 97.9519 63.1887 97.0136 59.1035C96.0665 54.9803 94.3928 51.2092 92.1605 47.8867C92.4288 47.6428 92.9355 47.1942 93.0791 47.0622C93.1211 46.5975 93.085 46.1103 93.5661 45.5958C94.5845 44.6394 95.8687 43.8464 97.4175 42.8898C98.1527 42.4573 98.8323 42.1785 99.5701 41.6337C99.737 41.5105 99.9648 41.3153 100.14 41.1744C101.382 40.1834 101.668 38.4742 100.776 37.3561C99.8846 36.238 98.1562 36.1327 96.914 37.1237C96.7371 37.2637 96.4972 37.4464 96.3385 37.583C95.6432 38.1812 95.2138 38.772 94.6286 39.3925C93.3514 40.6898 92.2957 41.772 91.1368 42.5522C90.6346 42.8446 89.899 42.7435 89.5652 42.7238L88.5802 43.4266C82.9635 37.5369 75.3163 33.7713 67.0819 33.0398C67.0589 32.6948 67.0287 32.071 67.021 31.8833C66.6839 31.5607 66.2767 31.2853 66.1744 30.5884C66.0617 29.1959 66.2498 27.6977 66.4677 25.8903C66.5879 25.0459 66.7877 24.3444 66.8218 23.4278C66.8296 23.2195 66.8171 22.9171 66.8163 22.6918C66.8161 21.1027 65.6568 19.8142 64.2265 19.8143ZM60.9838 39.9016L60.2146 53.4868L60.1593 53.5145C60.1077 54.7298 59.1074 55.7003 57.8794 55.7003C57.3763 55.7003 56.912 55.5387 56.5347 55.2631L56.5126 55.2742L45.3733 47.3776C48.7968 44.0112 53.1758 41.5233 58.2225 40.3775C59.1443 40.1682 60.0658 40.0129 60.9838 39.9016ZM67.4748 39.9016C73.3668 40.6263 78.8158 43.2942 82.9912 47.3831L71.9239 55.2299L71.8851 55.2133C70.9028 55.9308 69.5188 55.7528 68.7531 54.7928C68.4394 54.3995 68.2748 53.937 68.255 53.4702L68.244 53.4647L67.4748 39.9016ZM41.3337 52.452L51.5046 61.5494L51.4935 61.6047C52.4116 62.4028 52.5469 63.7877 51.7813 64.7478C51.4676 65.1411 51.0478 65.4049 50.5971 65.5281L50.586 65.5724L37.5486 69.3353C36.8851 63.2677 38.3151 57.3695 41.3337 52.452ZM87.0474 52.4575C88.5586 54.907 89.703 57.6427 90.3842 60.6086C91.0573 63.539 91.2262 66.4641 90.9487 69.291L77.8449 65.517L77.8339 65.4617C76.6604 65.141 75.9393 63.9474 76.2125 62.7502C76.3244 62.2597 76.5847 61.8448 76.9374 61.5383L76.9319 61.5106L87.0474 52.4575ZM62.1403 62.2521H66.3072L68.897 65.4894L67.9673 69.5289L64.2265 71.3274L60.4747 69.5234L59.545 65.4838L62.1403 62.2521ZM75.4986 73.3306C75.6757 73.3216 75.852 73.3376 76.0243 73.3693L76.0465 73.3417L89.5321 75.6215C87.5584 81.1664 83.7818 85.97 78.7358 89.1846L73.501 76.5401L73.5176 76.518C73.0367 75.4006 73.5179 74.0903 74.6243 73.5575C74.9076 73.421 75.2035 73.3455 75.4986 73.3306ZM52.8493 73.3859C53.8784 73.4004 54.8015 74.1146 55.0406 75.1622C55.1526 75.6527 55.0981 76.1386 54.9133 76.5678L54.9521 76.6176L49.7725 89.1348C44.93 86.0273 41.0728 81.3745 39.0095 75.6658L52.3789 73.397L52.401 73.4247C52.5506 73.3971 52.7023 73.3839 52.8493 73.3859ZM64.1435 78.8698C64.502 78.8566 64.8658 78.9302 65.2115 79.0967C65.6648 79.3149 66.0149 79.6586 66.2353 80.0706H66.2851L72.8757 91.9791C72.0203 92.2658 71.141 92.5109 70.2416 92.7151C65.2012 93.8595 60.1768 93.5128 55.6272 91.9625L62.2012 80.0762H62.2123C62.6067 79.3387 63.3549 78.8988 64.1435 78.8698Z" fill="white" stroke="white" stroke-width="0.25"/>
</svg>
