<svg width="128" height="128" viewBox="0 0 128 128" fill="none" xmlns="http://www.w3.org/2000/svg">
<path d="M67.5076 63.2152V63.2144C67.5076 60.8536 67.1063 58.5928 66.3957 56.4779L73.1742 51.6739C76.1609 54.9064 80.4061 56.9445 85.1271 56.9445C94.1574 56.9445 101.5 49.5219 101.5 40.41C101.5 31.2951 94.1573 23.8754 85.1271 23.8754C76.0931 23.8754 68.7503 31.295 68.7503 40.41C68.7503 41.9171 68.9593 43.3726 69.3371 44.7602L62.5561 49.5642C59.4103 45.7976 55.066 43.2537 50.2681 42.3715V34.1227C57.4897 32.3997 62.8786 25.8431 62.8786 18.0345C62.8786 8.91769 55.5359 1.5 46.5057 1.5C37.4727 1.5 30.1289 8.91857 30.1289 18.0345C30.1289 25.7379 35.3789 32.218 42.4535 34.0439V42.4188C32.8058 44.3323 25.5 52.9207 25.5 63.2144C25.5 73.5574 32.8757 82.1763 42.5979 84.0322V92.9185C35.4483 94.6907 30.1299 101.21 30.1299 108.965C30.1299 118.081 37.4717 125.5 46.5057 125.5C55.5359 125.5 62.8786 118.081 62.8786 108.965C62.8786 101.21 57.5593 94.6917 50.4135 92.9186V84.032C55.1158 83.1327 59.3732 80.6365 62.4822 76.9588L69.3263 81.8554C68.9456 83.2579 68.7517 84.7061 68.7503 86.1616V86.162C68.7503 95.277 76.0931 102.696 85.1271 102.696C94.1573 102.696 101.5 95.277 101.5 86.162C101.5 77.0462 94.1573 69.6266 85.1271 69.6266C80.3925 69.6266 76.1364 71.6762 73.1481 74.9221L66.3576 70.0666C67.1148 67.8642 67.5037 65.5486 67.5076 63.2152ZM85.1271 33.1331C89.0889 33.1331 92.3217 36.3954 92.3217 40.41C92.3217 44.4215 89.0891 47.6829 85.1271 47.6829C81.161 47.6829 77.9277 44.4213 77.9277 40.41C77.9277 36.3947 81.1611 33.1331 85.1271 33.1331ZM39.3073 18.0336C39.3073 14.0195 42.5395 10.7616 46.5057 10.7616C50.468 10.7616 53.7013 14.0194 53.7013 18.0345C53.7013 22.0497 50.468 25.3075 46.5057 25.3075C42.5396 25.3075 39.3073 22.0487 39.3073 18.0336ZM53.7013 108.965C53.7013 112.981 50.468 116.238 46.5057 116.238C42.5395 116.238 39.3073 112.981 39.3073 108.965C39.3073 104.95 42.5395 101.692 46.5057 101.692C50.468 101.692 53.7013 104.95 53.7013 108.965ZM46.5019 73.5573C40.8663 73.5573 36.2701 68.9205 36.2701 63.2144C36.2701 57.5043 40.8663 52.8685 46.5019 52.8685C52.1413 52.8685 56.7375 57.5045 56.7375 63.2144C56.7375 68.9204 52.1423 73.5573 46.5019 73.5573ZM85.1271 93.435C81.1608 93.435 77.9277 90.177 77.9277 86.162C77.9277 82.1461 81.1608 78.8881 85.1271 78.8881C89.0893 78.8881 92.3217 82.1459 92.3217 86.1611C92.3217 90.1773 89.0892 93.435 85.1271 93.435Z" fill="#231F20" stroke="#A3A3A3"/>
</svg>
