<svg width="128" height="128" viewBox="0 0 128 128" fill="none" xmlns="http://www.w3.org/2000/svg">
<path d="M108.309 96.3389C109.992 97.9289 110.831 99.3594 112.631 100.824C114.884 102.662 116.026 106.879 113.789 108.784C112.561 109.831 111.162 110.795 109.676 111.409C104.484 113.551 99.9535 117.622 96.0256 121.536C92.8405 124.707 89.0109 125.323 84.8073 124.865C82.6167 124.626 81.1931 123.247 80.351 121.37C79.6643 119.838 78.6848 118.209 76.9785 118.189C70.6745 118.119 64.3716 117.819 58.0707 117.824C54.3583 117.827 50.9216 118.902 48.2018 121.649C45.5962 124.28 42.35 124.75 39.1148 123.396C31.5166 120.217 22.5065 117.574 14.5624 115.623C11.1197 114.779 11.7478 112.821 12.1117 109.297C12.4536 106.01 13.5013 103.808 12.3924 100.363C12.2711 96.3002 11.995 92.7359 15.9811 92.1501C21.0489 91.4066 23.63 90.1621 25.9899 86.2891C26.2646 85.8401 26.7483 84.3969 26.5227 83.8388C25.6515 81.6848 26.725 79.823 27.9521 77.9395C31.2635 72.8573 32.1713 68.1982 34.2465 62.5845C35.0084 60.5247 36.0992 59.5343 37.3313 57.7064C39.4888 54.5095 41.7164 50.3333 44.2067 47.3902C46.7962 44.3292 47.3977 43.0017 47.109 39.1426C46.6027 32.3335 46.2589 25.4996 46.1847 18.6747C46.1065 11.5831 50.2901 6.4988 57.2085 4.70954C61.9696 3.47738 66.6363 3.85903 71.1447 5.78409C77.0286 8.295 80.2728 12.9768 81.5891 18.9641C82.2677 22.0511 82.6307 25.1977 82.6729 28.3565C82.747 35.1993 84.2178 41.5336 88.3201 47.172C90.9427 50.7773 93.5122 54.4262 95.9724 58.1415C101.315 66.2145 104.9 70.8859 104.635 80.759C104.609 81.6977 104.619 82.6563 104.43 83.5683C104.261 84.3861 103.842 85.1533 103.395 86.2973C105.297 86.8187 105.661 88.1599 105.513 89.7192C105.256 92.4293 106.434 94.5695 108.309 96.3389Z" stroke="#E7E7E7" stroke-opacity="0.3" stroke-width="4"/>
<path fill-rule="evenodd" clip-rule="evenodd" d="M111.389 102.237C109.671 100.809 107.917 99.4151 106.311 97.8657C104.521 96.1414 103.397 94.0558 103.642 91.4148C103.783 89.8952 103.436 88.5883 101.621 88.0801C102.047 86.9654 102.447 86.2177 102.609 85.4207C102.789 84.532 102.779 83.5979 102.804 82.6831C103.057 73.0618 99.6145 64.6277 94.5163 56.7606C92.1685 53.14 89.7165 49.5842 87.2138 46.0709C83.2989 40.5763 81.8954 34.4036 81.8246 27.7353C81.7845 24.6571 81.438 21.5907 80.7904 18.5825C79.5343 12.7479 76.4384 8.18546 70.8235 5.73859C66.5212 3.86262 62.0678 3.49071 57.5244 4.69145C50.9222 6.43507 46.9298 11.3897 47.0045 18.3004C47.0753 24.9513 47.4034 31.6109 47.8866 38.2463C48.1621 42.0069 47.5881 45.2517 45.1169 48.2347C42.7404 51.1028 40.6147 54.1968 38.5558 57.3122C37.38 59.0935 36.3391 61.0342 35.612 63.0415C33.6317 68.5119 31.8111 74.0278 28.6511 78.9804C27.4801 80.8158 27.3471 82.8696 28.1785 84.9687C28.3937 85.5125 28.5257 86.3491 28.2636 86.7867C26.0115 90.5608 23.4696 93.8819 18.6334 94.6064C14.8296 95.1773 14.6421 95.8757 14.7578 99.8353C14.8535 103.059 14.8162 106.312 14.4899 109.516C14.1427 112.95 14.4976 113.883 17.7829 114.706C25.3638 116.607 33.0069 118.229 40.2578 121.327C43.3451 122.645 46.4429 122.188 48.9294 119.624C51.5249 116.947 54.8045 115.9 58.3471 115.896C64.36 115.891 70.3748 116.184 76.3906 116.252C78.0189 116.272 78.9536 116.883 79.6089 118.377C80.4126 120.205 81.7711 121.549 83.8615 121.783C87.8729 122.229 91.5275 121.628 94.567 118.538C98.3153 114.724 102.638 111.712 107.593 109.625C109.01 109.027 110.346 108.087 111.518 107.067C113.652 105.21 113.539 104.028 111.389 102.237ZM62.217 24.4982C62.9422 21.9857 64.6442 20.3551 67.233 19.8605C69.4105 19.4451 71.254 20.5251 72.6279 22.9961C74.1069 25.6603 74.5929 28.4443 73.3301 31.3597C72.294 33.7496 71.808 33.9747 69.3856 33.1642C68.9321 33.0125 68.4892 32.8329 67.6855 32.5344C68.3629 31.9606 68.7896 31.5346 69.2775 31.1994C70.3624 30.4536 70.6666 29.4045 70.5652 28.1584C70.4322 26.522 69.1579 25.073 67.851 25.0914C66.6791 25.1078 65.687 26.2187 65.555 27.9072C65.4727 28.9592 65.6458 30.0315 65.7205 31.3742C62.4237 30.386 61.2134 27.9691 62.217 24.4982ZM50.019 22.3238C51.2379 20.4613 53.0776 20.0885 54.8992 21.3346C56.8403 22.6638 58.2926 26.4119 57.5426 28.653C57.2699 29.4683 56.4644 30.102 55.9009 30.8178L55.323 30.4565C55.103 29.2461 55.059 27.9594 54.5988 26.8504C54.3079 26.1472 53.7365 25.115 52.7629 25.1484C51.7022 25.1847 51.1432 26.5423 51.0819 27.3006C50.9985 28.3389 51.5292 29.4836 51.9971 30.4926C52.001 30.5012 52.005 30.5098 52.009 30.5183C52.3065 31.1569 52.9667 31.6244 53.6478 32.3692L51.809 33.8278C48.9217 31.2196 48.0635 25.3077 50.019 22.3238ZM86.0523 84.3466C85.8581 86.862 85.574 86.9673 83.0693 87.3392C81.2908 87.602 80.8124 88.0695 80.7225 90.2024C80.6245 92.6978 80.6206 95.1961 80.7111 97.6918C80.7694 99.4016 80.1973 100.742 79.032 101.935C72.5609 108.558 64.8298 111.697 55.5813 110.558C51.5919 110.066 48.9839 107.615 46.8782 104.145C47.8158 103.794 48.5094 103.558 49.1858 103.281C52.1726 102.054 52.7313 99.4605 50.3462 97.2175C48.5438 95.5202 46.5328 94.0461 44.5993 92.4918C42.7299 90.9897 40.8356 89.5185 38.9634 88.0202C37.3676 86.7422 36.7582 85.0952 36.7199 83.0087C36.63 78.0029 37.6498 73.3197 39.722 68.7631C41.5704 64.6972 43.0026 60.4391 44.7342 56.3162C45.6287 54.1891 46.5577 52.0127 47.8703 50.1454C49.1322 48.3545 49.9119 46.6012 49.7722 44.4074C49.6919 43.1748 49.7569 41.9326 49.7569 40.6951L50.4333 40.3551C51.5249 41.3066 52.6356 42.2378 53.7081 43.2135C57.578 46.7355 61.2584 46.8968 65.4937 43.8607C67.3 42.5653 69.2536 41.4747 71.1641 40.3329C71.6396 40.0489 72.2088 39.9242 73.0144 39.6199C75.0722 44.5137 77.0918 49.3118 79.1133 54.1099C80.1389 56.5481 80.9617 59.1012 82.236 61.4003C84.7914 66.0129 86.1509 70.8796 86.1298 76.153C86.1183 78.8868 86.2609 81.6302 86.0523 84.3466Z" fill="black"/>
<path d="M62.2171 24.4983C62.9422 21.9857 64.6442 20.3551 67.233 19.8605C69.4105 19.4452 71.2541 20.5251 72.6279 22.9962C74.107 25.6604 74.593 28.4444 73.3301 31.3598C72.294 33.7496 71.808 33.9747 69.3856 33.1642C68.9322 33.0126 68.4892 32.8329 67.6856 32.5344C68.3629 31.9606 68.7896 31.5346 69.2775 31.1994C70.3624 30.4537 70.6667 29.4046 70.5652 28.1584C70.4323 26.522 69.1579 25.073 67.8511 25.0914C66.6791 25.1078 65.687 26.2187 65.555 27.9073C65.4727 28.9593 65.6459 30.0315 65.7205 31.3742C62.4237 30.386 61.2135 27.9691 62.2171 24.4983Z" fill="white"/>
<path d="M50.0191 22.3238C51.2379 20.4614 53.0777 20.0885 54.8992 21.3346C56.8404 22.6639 58.2927 26.4119 57.5426 28.653C57.2699 29.4683 56.4644 30.102 55.9009 30.8178L55.3231 30.4565C55.103 29.2462 55.059 27.9594 54.5988 26.8505C54.308 26.1472 53.7365 25.1151 52.7629 25.1484C51.7022 25.1847 51.1432 26.5423 51.082 27.3006C50.9985 28.3389 51.5292 29.4836 51.9971 30.4926L52.009 30.5184C52.3066 31.1569 52.9667 31.6244 53.6479 32.3692L51.8091 33.8279C48.9217 31.2197 48.0636 25.3078 50.0191 22.3238Z" fill="white"/>
<path d="M86.0524 84.3466C85.8581 86.8621 85.574 86.9673 83.0694 87.3393C81.2908 87.602 80.8125 88.0696 80.7226 90.2025C80.6245 92.6979 80.6207 95.1962 80.7111 97.6918C80.7695 99.4017 80.1973 100.742 79.0321 101.935C72.5609 108.558 64.8298 111.697 55.5814 110.558C51.5919 110.066 48.9839 107.615 46.8782 104.145C47.8158 103.794 48.5094 103.558 49.1858 103.281C52.1726 102.054 52.7313 99.4606 50.3463 97.2175C48.5439 95.5203 46.5329 94.0462 44.5994 92.4919C42.73 90.9898 40.8357 89.5185 38.9634 88.0203C37.3676 86.7423 36.7582 85.0953 36.7199 83.0087C36.63 78.0029 37.6499 73.3198 39.7221 68.7631C41.5704 64.6973 43.0026 60.4392 44.7343 56.3163C45.6288 54.1892 46.5577 52.0128 47.8703 50.1455C49.1322 48.3545 49.9119 46.6013 49.7723 44.4075C49.6919 43.1749 49.7569 41.9326 49.7569 40.6952L50.4333 40.3551C51.5249 41.3066 52.6357 42.2378 53.7081 43.2135C57.578 46.7355 61.2584 46.8968 65.4938 43.8607C67.3 42.5653 69.2536 41.4747 71.1641 40.3329C71.6396 40.0489 72.2089 39.9243 73.0144 39.62C75.0723 44.5137 77.0919 49.3118 79.1134 54.1099C80.139 56.5481 80.9617 59.1012 82.2361 61.4003C84.7914 66.013 86.1509 70.8797 86.1298 76.153C86.1184 78.8868 86.2609 81.6302 86.0524 84.3466Z" fill="white"/>
<path d="M22.7473 92.4047C20.6239 93.9382 15.247 93.7961 13.8794 95.5895C12.5352 97.3828 13.9271 99.9779 13.9028 104.791C13.9028 106.844 13.5497 108.402 13.3133 109.651C12.9836 111.232 12.7706 112.341 13.431 113.473C14.6352 115.48 16.5669 115.975 27.6291 118.287C33.5478 119.513 39.2504 122.693 43 123C46.7496 123.283 47.4395 122.038 49.7272 120.009C51.9906 117.98 52.7221 118.617 52.651 114.158C52.581 109.723 49.7272 108.402 46.496 103.281C43.2648 98.1622 42.7474 97.2184 40.6007 93.8205C38.454 90.4703 34.2092 84.3839 31.7805 84.3129C29.8458 84.2662 28.7613 85.3044 27.5581 86.5315C26.3549 87.7575 24.8686 90.8712 22.7473 92.4047Z" fill="#FFD133"/>
<path d="M104.758 88.1963C106.269 90.417 104.708 93.3043 105.807 95.0812C107.611 97.993 111.245 100.928 112.634 101.743C113.634 102.36 115.048 102.952 114.999 104.754C114.925 106.802 113.926 107.344 113.366 107.913C112.243 109.048 106.587 111.885 102.832 114.476C98.1 117.757 96.4678 119.215 94.9311 120.768C92.5415 123.187 90.2737 124 86.6401 124C83.0065 124 81.3732 123.236 80.2519 122.223C79.1295 121.236 77.8875 118.719 78.0081 114.969C78.1057 111.242 79.2753 107.836 79.8375 102.037C80.0809 99.5449 80.0557 96.4612 80.0557 93.7225C80.0557 90.2673 80.105 87.3311 80.8372 86.8874C82.1536 86.0488 82.4463 86 84.0061 86C85.5659 86 86.274 86.0977 86.7859 86.6167C87.2726 87.1093 87.0785 88.2451 86.9075 89.849C86.7607 91.453 87.518 91.971 88.2733 92.6376C89.0296 93.2788 89.7125 94.094 92.102 94.2915C94.4915 94.4634 95.3685 94.0696 96.4909 93.3531C97.6132 92.6376 99.1972 91.3553 99.7836 90.6144C100.344 89.8989 101.734 87.4309 102.002 87.4309C102.245 87.4309 103.856 86.8641 104.758 88.1963Z" fill="#FFD133"/>
<mask id="path-6-inside-1_204_42" fill="white">
<path d="M59.3248 29.8767C61.02 29.6641 63.3414 30.0893 64.4102 30.8939C65.4081 31.6518 66.1043 32.0536 67.0103 32.3598C70.0519 33.377 74.0464 33.85 73.8606 36.6402C73.6519 39.9737 72.6999 41.4639 69.983 42.3387C67.8004 43.0243 63.8997 46.8786 60.8811 46.8786C59.5346 46.8786 57.6537 46.9498 56.5619 46.548C55.5171 46.1696 54.0537 44.3722 52.3356 42.9297C50.6166 41.5107 49.0153 39.9981 48.9694 38.0114C48.8995 35.9078 50.246 35.2212 52.1509 33.5418C53.1497 32.6436 54.9607 31.1533 56.2143 30.4911C57.374 29.9001 58.1182 30.0181 59.3248 29.8767Z"/>
</mask>
<path d="M59.3248 29.8767C61.02 29.6641 63.3414 30.0893 64.4102 30.8939C65.4081 31.6518 66.1043 32.0536 67.0103 32.3598C70.0519 33.377 74.0464 33.85 73.8606 36.6402C73.6519 39.9737 72.6999 41.4639 69.983 42.3387C67.8004 43.0243 63.8997 46.8786 60.8811 46.8786C59.5346 46.8786 57.6537 46.9498 56.5619 46.548C55.5171 46.1696 54.0537 44.3722 52.3356 42.9297C50.6166 41.5107 49.0153 39.9981 48.9694 38.0114C48.8995 35.9078 50.246 35.2212 52.1509 33.5418C53.1497 32.6436 54.9607 31.1533 56.2143 30.4911C57.374 29.9001 58.1182 30.0181 59.3248 29.8767Z" fill="#FFD133" stroke="black" stroke-width="2" mask="url(#path-6-inside-1_204_42)"/>
</svg>
