<svg width="128" height="128" viewBox="0 0 128 128" fill="none" xmlns="http://www.w3.org/2000/svg">
<g clip-path="url(#clip0_12_9)">
<circle cx="64" cy="64" r="64" fill="white"/>
<path d="M90.0158 66.984C86.58 66.8899 83.9552 67.2106 81.71 68.1593C81.0719 68.4296 80.0554 68.4364 79.952 69.2377C80.3017 69.6076 80.3561 70.1577 80.6351 70.6109C81.1712 71.4804 82.0761 72.6461 82.883 73.2563C83.7633 73.9238 84.6723 74.639 85.6193 75.2178C87.2998 76.247 89.1776 76.834 90.7982 77.8632C91.752 78.472 92.6991 79.2364 93.6311 79.923C94.0924 80.2602 94.3999 80.7884 95 81V80.9031C94.6857 80.5018 94.604 79.9503 94.3156 79.5299L93.0447 78.255C91.8023 76.6006 90.2267 75.1496 88.5489 73.9429C87.2127 72.9805 84.2219 71.6797 83.664 70.1195L83.566 70.0226C84.5131 69.9147 85.6234 69.5707 86.497 69.336C87.9665 68.9401 89.2796 69.0425 90.7968 68.6493L92.8487 68.0597V67.6693C92.0827 66.8803 91.5343 65.8347 90.6988 65.1208C88.5122 63.2521 86.1228 61.3847 83.664 59.8259C82.3006 58.9632 80.6147 58.4022 79.1682 57.6705C78.6838 57.4235 77.8293 57.2965 77.5068 56.8857C76.7462 55.9151 76.3339 54.6853 75.7474 53.5537C74.4949 51.1091 73.3219 48.6243 72.23 46.1034C71.4898 44.404 71.0054 42.7277 70.0815 41.203C65.6442 33.8852 60.8682 29.468 53.4701 25.1272C51.8957 24.2031 50.0003 23.84 47.9987 23.3636L44.7738 23.1671C44.1193 22.8927 43.4363 22.0874 42.8199 21.697C40.3679 20.1436 34.0814 16.7652 32.2663 21.2083C31.1206 24.012 33.9808 26.7475 35.0026 28.1685C35.7197 29.165 36.6396 30.2815 37.1525 31.4022C37.49 32.1393 37.5471 32.8778 37.837 33.6572C38.5459 35.5764 39.165 37.6663 40.0835 39.4394C40.5475 40.3376 41.0605 41.2836 41.6469 42.0862C42.0062 42.5776 42.6239 42.796 42.7205 43.5563C42.1177 44.4026 42.0824 45.7185 41.7436 46.79C40.2168 51.6208 40.7924 57.6255 43.0144 61.2005C43.6962 62.2993 45.3018 64.6526 47.5088 63.749C49.4397 62.96 49.0097 60.5152 49.5621 58.3571C49.6873 57.8698 49.6098 57.5095 49.8547 57.1819V57.2801L51.6141 60.8087C52.9163 62.9122 55.2254 65.1085 57.1834 66.5923C58.1985 67.3608 58.9986 68.6917 60.3103 69.1408V69.0411H60.2137C59.9579 68.6439 59.5619 68.4801 59.2353 68.1593C58.4706 67.4072 57.6202 66.4735 56.9888 65.6108C55.2077 63.1866 53.6347 60.5316 52.2005 57.7688C51.5161 56.4502 50.9215 54.9951 50.3445 53.6519C50.1214 53.1346 50.1241 52.3511 49.6615 52.0849C49.0274 53.0677 48.098 53.8635 47.6082 55.0251C46.8271 56.8816 46.7264 59.1461 46.4366 61.4939L46.2407 61.5909C44.8786 61.2619 44.401 59.8559 43.8948 58.6506C42.6158 55.6025 42.3776 50.6926 43.5043 47.1831C43.7955 46.274 45.1113 43.4143 44.5779 42.5749C44.3234 41.7381 43.4839 41.2549 43.0158 40.6133C42.4017 39.7549 41.8777 38.8349 41.4524 37.8683C40.4046 35.4918 39.9161 32.8232 38.8153 30.4194C38.2874 29.2701 37.3975 28.1084 36.6654 27.0874C35.8558 25.9544 34.9482 25.1218 34.3196 23.754C34.0964 23.2681 33.793 22.4887 34.1236 21.9891C34.2284 21.6519 34.3794 21.5113 34.7115 21.4008C35.2775 20.9626 36.8559 21.5468 37.4465 21.7925C39.014 22.4464 40.3216 23.0674 41.6497 23.9492C42.2865 24.3738 42.9301 25.1928 43.7016 25.4194H44.5806C45.9563 25.736 47.4979 25.5163 48.7824 25.908C51.0548 26.6015 53.0904 27.6785 54.9383 28.8496C60.5702 32.4178 65.1734 37.4956 68.3248 43.5536C68.831 44.5296 69.0514 45.4591 69.4964 46.4938C70.3972 48.5796 71.532 50.7267 72.4273 52.7674C73.3213 54.8026 74.1935 56.857 75.4576 58.551C76.1216 59.441 78.6879 59.9187 79.854 60.4129C80.6718 60.7596 82.0108 61.1213 82.785 61.5881C84.2641 62.4836 85.6983 63.5497 87.0848 64.5297C87.7774 65.0239 89.9096 66.0981 90.0158 66.984ZM46.3386 29.6386C45.7462 29.6289 45.155 29.6949 44.5793 29.8352V29.9321H44.6772C45.0188 30.6378 45.6216 31.091 46.0447 31.6971L47.0231 33.7555L47.1197 33.6586C47.7252 33.2313 48.0014 32.5475 47.9987 31.5019C47.7551 31.2452 47.7197 30.9245 47.5102 30.6201C47.2326 30.2106 46.6911 29.9812 46.3386 29.6386Z" fill="#00618A"/>
<path d="M21.0008 96.4217H24.1135V83.4844L28.9325 94.763C29.5008 96.1283 30.279 96.6107 31.8058 96.6107C33.3326 96.6107 34.0812 96.1283 34.6495 94.763L39.4686 83.4844V96.4217H42.5812V83.5059C42.5812 82.2459 42.1024 81.6359 41.1143 81.3216C38.7495 80.5449 37.1628 81.2172 36.4445 82.8974L31.7156 94.0285L27.1367 82.8966C26.448 81.2172 24.8318 80.5449 22.4669 81.3209C21.4789 81.6359 21 82.2451 21 83.5051L21.0008 96.4217ZM45.1704 85.8903H48.2823V93.0181C48.2535 93.4049 48.4005 94.314 50.1054 94.3427C50.9752 94.3571 56.8202 94.3427 56.8748 94.3427V85.8553H59.9943C60.0087 85.8553 59.9913 97.4297 59.9913 97.4776C60.0079 100.333 56.6263 100.952 55.0669 101H45.2378V98.7958C45.2545 98.7958 55.0601 98.7982 55.0843 98.795C57.0885 98.5725 56.8513 97.5246 56.8505 97.1721V96.3125H50.2349C47.1571 96.283 45.1961 94.8691 45.1711 93.2422C45.1696 93.0931 45.2386 85.9621 45.1704 85.8903Z" fill="#00618A"/>
<path d="M61 98.7983H69.7508C70.7753 98.7983 71.771 98.5728 72.5607 98.1825C73.8772 97.5457 74.521 96.6825 74.521 95.5508V93.2079C74.521 92.283 73.7898 91.4191 72.3555 90.8446C71.5947 90.5356 70.6575 90.3725 69.75 90.3725H66.0621C64.8331 90.3725 64.2478 89.9822 64.1019 89.119C64.073 89.016 64.073 88.9341 64.073 88.831V87.3716C64.073 87.2896 64.073 87.2069 64.1019 87.1047C64.2478 86.4467 64.5701 86.2618 65.6532 86.1588L65.9458 86.1385H74.6381V84.0016H66.0925C64.8635 84.0016 64.2197 84.0835 63.6344 84.2685C61.8201 84.8648 61.0289 85.8099 61.0289 87.4543V89.3243C61.0289 90.7635 62.5809 91.9966 65.185 92.2846C65.4784 92.3041 65.7702 92.326 66.0629 92.326H69.224C69.3411 92.326 69.4581 92.326 69.5463 92.3455C70.5123 92.4274 70.9213 92.6132 71.2146 92.9823C71.2898 93.0555 71.3495 93.1445 71.3897 93.2436C71.4299 93.3428 71.4498 93.4497 71.448 93.5575V95.4283C71.448 95.6538 71.3021 95.9418 71.0094 96.1885C70.7464 96.4351 70.3071 96.5998 69.7219 96.6411L69.3996 96.6614H61V98.7983ZM93.5086 95.0786C93.5086 97.2772 95.0599 98.5103 98.1907 98.7577C98.4833 98.778 98.776 98.7983 99.0686 98.7983H107V96.6614H99.0108C97.2254 96.6614 96.5527 96.1885 96.5527 95.0576V84H93.5094L93.5086 95.0786ZM76.4635 95.1895V87.5683C76.4635 85.6327 77.754 84.4581 80.3055 84.0874C80.5773 84.0463 80.8516 84.0257 81.1263 84.0258H86.9041C87.1974 84.0258 87.4612 84.046 87.7538 84.0874C90.3053 84.4581 91.5965 85.6319 91.5965 87.5683V95.1895C91.5965 96.7613 91.0483 97.6011 89.7852 98.149L92.7841 101H89.2496L86.8241 98.693L84.3823 98.8561H81.1263C80.5215 98.852 79.9199 98.762 79.3379 98.5884C77.4021 98.0327 76.4635 96.9611 76.4635 95.1895ZM79.7483 95.0045C79.7483 95.1075 79.7772 95.2113 79.8069 95.3346C79.9824 96.2205 80.7751 96.7145 81.9768 96.7145H84.7416L82.202 94.299H85.7365L87.9509 96.4062C88.3598 96.176 88.628 95.8263 88.7221 95.376C88.751 95.273 88.751 95.17 88.751 95.0669V87.7556C88.751 87.6736 88.751 87.5698 88.7221 87.4668C88.5458 86.6426 87.7538 86.1697 86.5811 86.1697H81.976C80.6277 86.1697 79.7476 86.7878 79.7476 87.7556L79.7483 95.0045Z" fill="#E48E00"/>
</g>
<defs>
<clipPath id="clip0_12_9">
<rect width="128" height="128" fill="white"/>
</clipPath>
</defs>
</svg>
