<svg width="128" height="128" viewBox="0 0 128 128" fill="none" xmlns="http://www.w3.org/2000/svg">
<path d="M74.7965 11.7998L74.7964 11.7997L74.7854 11.8015C67.0652 13.0821 60.557 16.2428 55.6779 21.101L55.6779 21.101C49.9003 26.8554 46.9796 33.7477 45.9923 43.8724H45.9923L45.9922 43.8731C45.7697 46.1873 45.5984 51.861 45.5311 56.9379C45.4974 59.4803 45.4897 61.8825 45.515 63.651C45.5277 64.534 45.5486 65.2653 45.5793 65.7788C45.5944 66.0333 45.6127 66.2468 45.6356 66.4021C45.6464 66.4759 45.6615 66.5596 45.6855 66.634C45.6963 66.6677 45.7189 66.7321 45.7629 66.7979C45.7942 66.8446 45.9308 67.0328 46.1963 67.0328C46.2574 67.0328 46.3094 67.0219 46.327 67.0182C46.3537 67.0126 46.3804 67.0057 46.4043 66.9991C46.4527 66.9856 46.5101 66.9676 46.5723 66.9469C46.6977 66.9052 46.8618 66.8463 47.0515 66.7749C47.4317 66.6319 47.9276 66.434 48.4476 66.212L48.4476 66.212C49.5544 65.7394 51.3712 65.4845 53.2801 65.4786C55.1834 65.4726 57.0875 65.7143 58.3556 66.174L58.3584 66.175L60.4134 66.9059L61.0664 67.1382L61.0808 66.4453L61.3259 54.7015L61.326 54.7008C61.448 48.4298 61.5824 44.8587 61.974 42.272C62.3607 39.7174 62.9978 38.1249 64.1572 35.8151C64.9305 34.3227 66.2705 32.6748 67.8393 31.2082C69.4082 29.7415 71.1743 28.4856 72.7754 27.7583L72.7774 27.7573C76.4966 26.0477 81.9727 25.3756 86.188 26.0423C90.715 26.7865 94.2882 28.3746 97.0084 30.836C99.7283 33.2971 101.631 36.6635 102.762 41.0246L102.762 41.0254C103.671 44.5047 103.723 46.2699 103.723 65.8983V87V87.5H104.223H119H119.505L119.5 86.9947L119.255 63.9462C119.255 63.9457 119.255 63.9453 119.255 63.9448C119.108 42.1999 119.015 40.6545 117.968 36.6799C115.143 25.7218 108.287 17.7381 98.6755 14.1163C93.5658 12.1892 88.7068 11.4523 82.0557 11.5024L82.0521 11.5024C78.7844 11.5505 75.5201 11.6964 74.7965 11.7998Z" fill="black" stroke="#A4A4A4"/>
<path d="M15.2113 47.8546L15.2113 47.8546L15.2093 47.8556C10.8356 50.0515 8.5 54.0026 8.5 59.2658C8.5 60.1004 8.5753 61.0424 8.7003 61.8955C8.82355 62.7366 9.00083 63.5316 9.22035 64.0559C9.71403 65.2813 10.6449 66.6037 11.7292 67.7676C12.8161 68.9342 14.0895 69.9764 15.2961 70.6205L15.298 70.6214C16.785 71.4073 18.8852 71.7804 20.9342 71.7866C22.9824 71.7928 25.0701 71.4326 26.5335 70.6718C26.5337 70.6717 26.534 70.6715 26.5343 70.6714L28.265 69.7808L34.256 73.8694L34.2582 73.871L40.2792 78.0282V84.0122L34.2574 88.1685L34.256 88.1695L28.2366 92.2937L26.9043 91.4824L26.9043 91.4824L26.8969 91.478C25.6349 90.7391 23.8309 90.3123 22.0145 90.1995C20.1946 90.0865 18.2896 90.284 16.8132 90.856C15.2857 91.4443 13.7483 92.434 12.4498 93.5991C11.1552 94.7608 10.0693 96.123 9.4719 97.477C8.82009 98.8673 8.51243 100.868 8.51243 102.824C8.51243 104.779 8.82019 106.78 9.4723 108.17C10.542 110.571 13.0063 113.198 15.2509 114.376L15.2509 114.376L15.259 114.38C15.7571 114.63 16.5522 114.861 17.4128 115.046C18.2854 115.234 19.2691 115.384 20.1689 115.459L20.1748 115.46C24.4133 115.764 28.0346 114.341 30.6324 111.272C31.6837 110.036 32.5398 108.358 33.0908 106.635C33.6411 104.914 33.902 103.101 33.7205 101.589L33.7204 101.588L33.5131 99.8855L39.5477 95.7988L45.6022 91.6986L47.5894 92.6092L47.5894 92.6094L47.6001 92.614C49.3946 93.3864 51.5979 93.673 53.7544 93.5218C55.9111 93.3705 58.0641 92.7782 59.7551 91.7493L59.7551 91.7494L59.761 91.7457C63.4196 89.4496 65.2518 86.1618 65.4531 81.6057C65.5261 80.0662 65.5303 79.0683 65.3465 78.1452C65.1615 77.2158 64.7919 76.392 64.1814 75.1902L64.1814 75.1902L64.1788 75.1852C60.886 68.8774 53.525 66.4773 47.2337 69.6329C47.2329 69.6333 47.2321 69.6337 47.2313 69.6341L45.6955 70.3845L39.7466 66.2921L39.7466 66.292L33.7612 62.1755L33.6259 59.0041C33.5762 56.9065 33.2521 55.1487 32.5532 53.597C31.8527 52.0416 30.7895 50.7239 29.3065 49.4872C25.4936 46.2208 19.8201 45.5665 15.2113 47.8546Z" fill="#018BFF" stroke="#757575"/>
</svg>
