<svg xmlns="http://www.w3.org/2000/svg" width="128" height="128" fill="none" viewBox="0 0 128 128"><path fill="#000" d="M63.5 4C30.682 4 4 30.682 4 63.5C4 96.318 30.682 123 63.5 123C73.9125 123 83.6742 120.304 92.1344 115.655L48.9969 55.4117V89.4383H42.675V42.8609H48.9969L95.9461 113.331C112.216 102.733 123 84.418 123 63.5C123 30.682 96.318 4 63.5 4ZM84.0461 82.6516L77.0734 72.1461V42.8609H84.0461V82.6516Z"/><path stroke="#FDFDFD" stroke-opacity=".5" stroke-width="4" d="M93.0975 117.408L95.0724 116.323L93.7605 114.491L50.623 54.2473L46.9969 49.1833V55.4117V87.4383H44.675V44.8609H47.9261L94.2817 114.44L95.3792 116.087L97.0378 115.007C113.848 104.056 125 85.1247 125 63.5C125 29.5775 97.4225 2 63.5 2C29.5775 2 2 29.5775 2 63.5C2 97.4225 29.5775 125 63.5 125C74.2617 125 84.3533 122.213 93.0975 117.408ZM79.0734 71.5428V44.8609H82.0461V76.0216L79.0734 71.5428Z"/><path fill="#000" d="M63.5 4C30.682 4 4 30.682 4 63.5C4 96.318 30.682 123 63.5 123C73.9125 123 83.6742 120.304 92.1344 115.655L48.9969 55.4117V89.4383H42.675V42.8609H48.9969L95.9461 113.331C112.216 102.733 123 84.418 123 63.5C123 30.682 96.318 4 63.5 4ZM84.0461 82.6516L77.0734 72.1461V42.8609H84.0461V82.6516Z"/></svg>