<svg width="128" height="128" viewBox="0 0 128 128" fill="none" xmlns="http://www.w3.org/2000/svg">
<path d="M58.5548 4.88675C61.6488 3.10042 65.4608 3.10042 68.5548 4.88675L112.11 30.0331C115.204 31.8195 117.11 35.1207 117.11 38.6934V88.9862C117.11 92.5588 115.204 95.8601 112.11 97.6464L68.5548 122.793C65.4608 124.579 61.6488 124.579 58.5548 122.793L15 97.6464C11.906 95.8601 10 92.5588 10 88.9862V38.6934C10 35.1207 11.906 31.8195 15 30.0331L58.5548 4.88675Z" fill="#0E9748"/>
<path d="M80.2381 43.0157C80.2381 39.9548 82.2866 37.5061 85.3592 37.5061C88.4318 37.5061 90.4803 40.1589 90.4803 43.2197V85.2557C90.4803 87.5003 89.8657 89.5409 87.8173 90.3571C87.2028 90.5612 86.9979 90.7652 86.3834 90.7652C84.9495 90.7652 83.5156 90.1531 82.4914 89.1328L49.5117 56.4835V85.2557C49.5117 88.3165 46.4391 90.7652 43.3664 90.7652C40.2938 90.7652 37.2211 88.3165 37.2211 85.2557V43.0157C37.2211 40.771 39.0647 38.7305 41.1131 37.9142C43.1616 37.098 46.0294 37.5061 47.6681 39.1386L80.2381 71.7879V43.0157Z" fill="white"/>
</svg>
