<svg xmlns="http://www.w3.org/2000/svg" width="128" height="128" fill="none" viewBox="0 0 128 128"><path fill="#F05323" fill-rule="evenodd" d="M27.216 20.304C28.08 20.684 29.023 20.626 29.926 20.736C36.81 21.57 42.393 24.892 47.24 29.664C51.2 33.563 54.624 37.934 58.251 42.126C61.221 45.56 64.403 48.754 68.263 51.201C72.337 53.78 76.765 55.216 81.598 55.339C81.771 55.343 81.94 55.351 82.111 55.362C82.126 55.363 82.137 55.404 82.192 55.505C80.394 56.753 78.44 57.672 76.306 58.175C71.482 59.311 67.123 58.351 63.306 55.143C62.24 54.247 61.214 53.298 60.122 52.435C58.411 51.079 56.459 50.371 54.253 50.634C51.156 51.005 49.471 53.348 50.191 56.394C51.316 61.151 54.044 64.877 57.857 67.853C61.97 71.063 66.691 72.811 71.815 73.534C76.898 74.249 81.959 74.241 86.933 72.745C87.258 72.646 87.577 72.61 87.738 72.974C87.889 73.322 87.512 73.385 87.342 73.524C86.17 74.47 85.008 75.428 83.798 76.327C79.423 79.57 74.508 81.441 69.084 81.839C65.154 82.125 61.724 80.756 58.684 78.317C56.288 76.398 54.422 73.985 52.454 71.667C50.815 69.738 49.191 67.798 47.54 65.881C46.518 64.694 45.424 63.576 44.129 62.674C42.088 61.257 39.853 60.775 37.407 61.265C34.074 61.933 32.255 64.694 33.152 67.993C35.098 75.146 39.642 79.605 46.997 81.06C47.205 81.101 47.463 81.025 47.628 81.34C43.831 82.116 40.114 81.921 36.468 80.725C29.114 78.31 23.179 74.106 19.566 67.065C17.308 62.667 16.354 57.933 16.121 53.029C15.971 49.878 16.089 46.709 15.601 43.58C15.023 39.884 14.136 36.284 11.985 33.128C9.561 29.57 6.223 27.753 1.888 27.841C1.378 27.851 0.867 27.843 0.342 27.843C0.337 27.488 0.63 27.42 0.81 27.285C4.418 24.581 8.589 23.11 12.849 21.857C15.252 21.15 17.717 20.736 20.208 20.478C20.389 20.459 20.619 20.547 20.729 20.304H27.216ZM15.041 25.583C15.966 26.561 16.94 27.24 18.195 27.427C19.732 27.656 21.322 26.815 21.845 25.522C22.21 24.622 22.166 24.56 21.226 24.634C20.718 24.673 20.208 24.698 19.701 24.755C18.164 24.925 16.63 25.117 15.041 25.583Z" clip-rule="evenodd"/><path fill="#F15524" fill-rule="evenodd" d="M127.923 80.218C126.811 80.665 125.775 81.29 124.547 81.468C121.582 81.898 118.901 81.35 116.625 79.301C116.203 78.922 115.773 78.545 115.394 78.127C113.532 76.078 111.228 74.938 108.473 74.694C108.257 74.675 108.042 74.614 107.796 74.568C110.471 72.206 115.095 71.747 118.469 73.468C119.859 74.178 121.023 75.167 122.064 76.299C123.692 78.071 125.614 79.355 127.923 80.044V80.218ZM83.543 107.697C83.228 107.366 82.773 107.411 82.386 107.283C80.152 106.543 78.272 105.284 76.666 103.575C73.577 100.285 72.092 99.283 68.075 97.701C68.188 97.446 68.421 97.475 68.637 97.47C70.604 97.414 72.553 97.553 74.467 98.031C78.028 98.923 80.77 100.952 82.607 104.127C83.335 105.385 84.179 106.481 85.42 107.247C85.593 107.355 85.747 107.474 85.764 107.698L83.543 107.697ZM77.891 96.334C76.662 96.019 75.514 95.742 74.377 95.427C70.648 94.397 66.89 94.636 63.125 95.147C61.184 95.409 59.247 95.71 57.298 95.911C51.36 96.524 45.849 95.103 40.69 92.226C35.548 89.358 30.988 85.791 27.521 80.956C27.257 80.587 27.009 80.207 26.758 79.828C26.68 79.711 26.615 79.585 26.527 79.434C26.945 79.254 27.188 79.576 27.452 79.721C30.208 81.242 32.909 82.862 35.921 83.867C41.238 85.64 46.498 85.696 51.737 83.554C54.262 82.521 56.809 82.367 59.305 83.696C59.538 83.82 59.848 83.874 59.962 84.21C58.861 84.503 57.77 84.765 56.697 85.088C55.757 85.371 54.963 85.852 54.883 86.976C54.815 87.914 55.335 88.595 56.523 89.111C58.941 90.159 61.503 90.423 64.102 90.463C67.081 90.509 69.983 90.919 72.734 92.147C74.306 92.849 75.692 93.828 77.024 94.893C77.45 95.233 77.765 95.652 77.891 96.334ZM110.218 57.374C109.971 56.853 109.829 56.548 109.683 56.247C107.348 51.406 103.427 49.579 98.236 50.981C95.856 51.624 93.538 52.537 91.073 52.813C79.284 54.137 69.076 51.114 61.17 41.841C60.951 41.583 60.454 41.21 60.675 40.979C61.052 40.584 61.345 41.186 61.624 41.382C67.67 45.659 74.353 47.664 81.77 47.083C85.104 46.82 88.294 45.907 91.483 44.961C94.302 44.125 97.158 43.539 100.129 44.144C106.582 45.457 110.54 50.528 110.218 57.374ZM80.66 82.615C80.773 82.566 80.845 82.526 80.922 82.503C83.842 81.609 86.108 79.747 88.19 77.61C90.231 75.517 92.136 73.288 94.35 71.359C99.054 67.259 104.45 66.057 110.468 67.419C111.97 67.759 113.217 68.478 114.315 69.496C113.12 69.404 112.062 69.377 111.016 69.234C108.893 68.942 107.165 69.661 105.731 71.181C104.58 72.3995 103.441 73.6305 102.317 74.874C98.212 79.418 92.969 81.65 87.009 82.431C85.203 82.666 83.397 82.847 81.571 82.796C81.309 82.791 81.02 82.885 80.66 82.615ZM107.611 64.19C106.572 64.412 105.791 64.058 105.011 63.932C100.157 63.147 95.69 63.922 91.477 66.603C85.079 70.673 78.104 71.343 70.828 69.56C69.951 69.344 69.071 69.035 68.169 68.321C69.191 68.262 69.975 68.493 70.764 68.608C74.444 69.146 77.737 68.139 80.776 66.125C83.245 64.489 85.799 63.008 88.607 62.039C94.065 60.162 99.498 59.882 104.846 62.464C105.764 62.905 106.646 63.41 107.611 64.19Z" clip-rule="evenodd"/><path fill="#F15524" fill-rule="evenodd" d="M84.314 41.491C81.433 43.14 78.522 43.492 75.495 43.287C66.855 42.704 59.997 38.559 54.046 32.589C53.865 32.408 53.62 32.204 53.719 31.941C53.833 31.628 54.167 31.793 54.395 31.794C60.162 31.803 65.451 33.25 69.977 36.996C70.918 37.774 71.899 38.505 72.876 39.238C75.857 41.475 79.181 42.26 82.847 41.554C83.267 41.475 83.684 41.438 84.314 41.491Z" clip-rule="evenodd"/></svg>