<svg xmlns="http://www.w3.org/2000/svg" width="128" height="128" fill="none" viewBox="0 0 128 128"><path fill="url(#paint0_linear_1_23)" d="M63.5787 12.0008C59.3567 12.0208 55.3267 12.3798 51.7787 13.0078C41.3287 14.8538 39.4327 18.7178 39.4327 25.8448V35.2558H64.1257V38.3928H30.1647C22.9887 38.3928 16.7047 42.7058 14.7387 50.9138C12.4707 60.3188 12.3707 66.1888 14.7387 76.0098C16.4937 83.3208 20.6857 88.5288 27.8627 88.5288H36.3537V77.2468C36.3537 69.0958 43.4047 61.9068 51.7797 61.9068H76.4447C83.3107 61.9068 88.7907 56.2528 88.7907 49.3588V25.8458C88.7907 19.1528 83.1447 14.1258 76.4447 13.0088C72.2007 12.3028 67.7997 11.9818 63.5787 12.0008ZM50.2247 19.5698C52.7747 19.5698 54.8587 21.6868 54.8587 24.2908C54.8587 26.8838 52.7757 28.9808 50.2247 28.9808C47.6647 28.9808 45.5917 26.8838 45.5917 24.2908C45.5907 21.6868 47.6647 19.5698 50.2247 19.5698Z"/><path fill="#fff" d="M50.2247 19.5698C52.7747 19.5698 54.8587 21.6868 54.8587 24.2908C54.8587 26.8838 52.7757 28.9808 50.2247 28.9808C47.6647 28.9808 45.5917 26.8838 45.5917 24.2908C45.5907 21.6868 47.6647 19.5698 50.2247 19.5698Z"/><path fill="url(#paint1_linear_1_23)" d="M91.8697 38.3928V49.3588C91.8697 57.8588 84.6617 65.0138 76.4437 65.0138H51.7787C45.0227 65.0138 39.4327 70.7968 39.4327 77.5628V101.078C39.4327 107.769 45.2507 111.706 51.7787 113.625C59.5947 115.922 67.0907 116.338 76.4437 113.625C82.6597 111.824 88.7897 108.202 88.7897 101.078V91.6658H64.1257V88.5278H101.138C108.314 88.5278 110.99 83.5228 113.486 76.0088C116.064 68.2738 115.953 60.8348 113.486 50.9128C111.712 43.7678 108.325 38.3918 101.138 38.3918L91.8697 38.3928ZM77.9967 97.9398C80.5577 97.9398 82.6307 100.037 82.6307 102.632C82.6307 105.234 80.5567 107.351 77.9967 107.351C75.4467 107.351 73.3637 105.234 73.3637 102.632C73.3637 100.037 75.4467 97.9398 77.9967 97.9398Z"/><path fill="#fff" d="M77.9967 97.9398C80.5577 97.9398 82.6307 100.037 82.6307 102.632C82.6307 105.234 80.5567 107.351 77.9967 107.351C75.4467 107.351 73.3637 105.234 73.3637 102.632C73.3637 100.037 75.4467 97.9398 77.9967 97.9398Z"/><defs><linearGradient id="paint0_linear_1_23" x1="10.525" x2="67.478" y1="14.943" y2="63.513" gradientUnits="userSpaceOnUse"><stop stop-color="#5A9FD4"/><stop offset="1" stop-color="#306998"/></linearGradient><linearGradient id="paint1_linear_1_23" x1="88.906" x2="68.482" y1="93.705" y2="65.063" gradientUnits="userSpaceOnUse"><stop stop-color="#FFD43B"/><stop offset="1" stop-color="#FFE873"/></linearGradient></defs></svg>