<svg width="128" height="128" viewBox="0 0 128 128" fill="none" xmlns="http://www.w3.org/2000/svg">
<g clip-path="url(#clip0_401_105)">
<path d="M40.666 0.00202158C40.009 0.0220216 39.302 0.262022 38.499 0.885022C36.532 0.138022 34.626 -0.119978 32.92 1.40002C30.287 1.06302 29.432 1.75802 28.783 2.56802C28.206 2.55602 24.459 1.98202 22.741 4.50802C18.424 4.00402 17.058 7.00802 18.604 9.81102C17.723 11.156 16.808 12.484 18.87 15.047C18.142 16.475 18.594 18.023 20.313 19.899C19.859 21.906 20.75 23.321 22.349 24.425C22.049 27.171 24.906 28.769 25.759 29.337C26.086 30.937 26.769 32.448 30.032 33.282C30.569 35.669 32.531 36.08 34.429 36.58C28.154 40.174 22.772 44.9 22.809 56.5L21.889 58.115C14.694 62.425 8.22 76.277 18.343 87.537C19.005 91.062 20.113 93.593 21.101 96.395C22.578 107.686 32.216 112.972 34.758 113.598C38.484 116.392 42.451 119.043 47.82 120.901C52.88 126.043 58.364 128.002 63.878 128H64.121C69.634 128.003 75.118 126.043 80.178 120.901C85.548 119.044 89.514 116.392 93.239 113.598C95.782 112.972 105.419 107.686 106.896 96.394C107.883 93.593 108.993 91.062 109.655 87.537C119.778 76.277 113.304 62.423 106.108 58.112L105.188 56.498C105.225 44.9 99.843 40.173 93.568 36.578C95.466 36.078 97.428 35.667 97.966 33.281C101.227 32.446 101.91 30.936 102.237 29.336C103.091 28.766 105.947 27.17 105.647 24.422C107.247 23.32 108.138 21.903 107.685 19.897C109.403 18.022 109.855 16.473 109.125 15.046C111.189 12.484 110.273 11.155 109.392 9.81002C110.938 7.00802 109.575 4.00302 105.255 4.50602C103.537 1.98202 99.791 2.55602 99.213 2.56602C98.564 1.75602 97.709 1.06202 95.076 1.39902C93.372 -0.120978 91.465 0.139022 89.498 0.885022C87.164 -0.928978 85.618 0.525022 83.853 1.07502C81.026 0.165022 80.38 1.41202 78.991 1.91902C75.908 1.27702 74.971 2.67402 73.493 4.14902L71.773 4.11602C67.124 6.81502 64.813 12.311 63.996 15.136C63.176 12.31 60.872 6.81402 56.223 4.11602L54.503 4.14802C53.023 2.67302 52.086 1.27702 49.003 1.91902C47.615 1.41202 46.97 0.165022 44.141 1.07502C42.982 0.715022 41.917 -0.0369784 40.663 0.00102158L40.666 0.00202158Z" fill="#050606"/>
<path d="M31.501 11.878C43.838 18.142 51.009 23.211 54.938 27.527C52.927 35.47 42.43 35.833 38.591 35.609C39.377 35.249 40.034 34.817 40.266 34.156C39.303 33.481 35.888 34.084 33.504 32.764C34.419 32.577 34.848 32.395 35.276 31.73C33.023 31.022 30.598 30.412 29.17 29.24C29.94 29.25 30.66 29.41 31.665 28.722C29.647 27.652 27.495 26.803 25.822 25.166C26.864 25.141 27.99 25.156 28.317 24.778C26.47 23.652 24.911 22.398 23.623 21.028C25.083 21.202 25.699 21.052 26.053 20.8C24.655 19.393 22.889 18.204 22.047 16.469C23.131 16.838 24.123 16.979 24.837 16.436C24.362 15.382 22.331 14.76 21.16 12.298C22.301 12.407 23.512 12.543 23.754 12.298C23.224 10.172 22.316 8.978 21.424 7.74C23.866 7.704 27.566 7.749 27.399 7.545L25.889 6.026C28.274 5.394 30.715 6.128 32.487 6.673C33.282 6.054 32.473 5.273 31.502 4.473C33.53 4.741 35.361 5.201 37.016 5.832C37.901 5.045 36.442 4.259 35.736 3.472C38.869 4.057 40.196 4.879 41.513 5.702C42.471 4.799 41.568 4.032 40.923 3.246C43.285 4.107 44.501 5.22 45.782 6.316C46.216 5.74 46.884 5.316 46.077 3.924C47.753 4.876 49.017 5.998 49.949 7.254C50.987 6.604 50.568 5.714 50.574 4.894C52.316 6.291 53.423 7.776 54.776 9.227C55.048 9.032 55.286 8.368 55.498 7.31899C59.655 11.291 65.528 21.297 57.008 25.264C49.756 19.374 41.095 15.091 31.498 11.878H31.501ZM96.844 11.878C84.507 18.143 77.336 23.21 73.407 27.527C75.419 35.47 85.917 35.833 89.754 35.609C88.968 35.249 88.312 34.817 88.08 34.156C89.044 33.481 92.458 34.084 94.843 32.764C93.927 32.577 93.497 32.395 93.07 31.73C95.322 31.022 97.749 30.412 99.175 29.24C98.405 29.25 97.685 29.41 96.68 28.722C98.698 27.652 100.85 26.803 102.524 25.166C101.48 25.141 100.356 25.156 100.029 24.778C101.876 23.652 103.434 22.398 104.723 21.028C103.263 21.202 102.647 21.052 102.293 20.8C103.69 19.393 105.457 18.204 106.299 16.469C105.215 16.838 104.223 16.979 103.509 16.436C103.983 15.382 106.014 14.76 107.186 12.298C106.044 12.407 104.834 12.543 104.591 12.298C105.123 10.172 106.031 8.977 106.922 7.738C104.48 7.703 100.78 7.748 100.947 7.545L102.459 6.026C100.072 5.393 97.631 6.126 95.86 6.671C95.064 6.053 95.874 5.272 96.844 4.473C94.818 4.74 92.985 5.199 91.33 5.831C90.445 5.044 91.904 4.258 92.61 3.471C89.478 4.056 88.152 4.878 86.833 5.701C85.876 4.798 86.779 4.031 87.423 3.245C85.061 4.106 83.845 5.219 82.565 6.315C82.132 5.739 81.462 5.315 82.269 3.923C80.593 4.875 79.329 5.99699 78.397 7.253C77.359 6.60199 77.778 5.713 77.772 4.893C76.03 6.29 74.923 7.776 73.571 9.226C73.298 9.031 73.06 8.366 72.848 7.318C68.692 11.29 62.818 21.296 71.338 25.263C78.587 19.371 87.246 15.089 96.845 11.877" fill="#63C54D"/>
<path d="M79.092 92.768C79.135 100.18 72.553 106.221 64.392 106.26C56.232 106.299 49.581 100.322 49.537 92.909V92.768C49.494 85.354 56.075 79.313 64.237 79.274C72.398 79.235 79.049 85.212 79.092 92.625V92.766M56.051 54.426C62.174 58.376 63.278 67.334 58.517 74.43C53.755 81.527 44.931 84.078 38.808 80.126C32.686 76.176 31.581 67.217 36.342 60.121C41.104 53.024 49.928 50.474 56.051 54.426ZM72.578 53.709C66.455 57.661 65.351 66.618 70.113 73.715C74.875 80.811 83.698 83.363 89.82 79.41C95.944 75.46 97.048 66.503 92.286 59.405C87.524 52.309 78.702 49.758 72.578 53.709ZM25.827 60.926C32.437 59.181 28.058 87.866 22.68 85.512C16.763 80.825 14.858 67.096 25.827 60.926ZM102.224 60.569C95.613 58.824 99.992 87.509 105.371 85.156C111.288 80.468 113.193 66.739 102.224 60.569ZM80.052 39.167C91.46 37.269 100.952 43.945 100.57 56.131C100.195 60.802 75.849 39.863 80.052 39.167ZM48.531 38.809C37.121 36.911 27.628 43.589 28.011 55.775C28.387 60.445 52.733 39.505 48.531 38.809ZM64.247 35.967C57.438 35.794 50.904 40.947 50.887 43.933C50.869 47.565 56.271 51.283 64.295 51.377C72.487 51.434 77.715 48.402 77.742 44.654C77.771 40.408 70.289 35.902 64.247 35.967ZM64.773 110.429C70.71 110.173 78.677 112.312 78.692 115.149C78.791 117.904 71.467 124.129 64.38 124.009C57.04 124.321 49.842 118.087 49.936 115.926C49.826 112.757 58.875 110.284 64.773 110.429ZM42.803 93.614C47.029 98.631 48.956 107.442 45.429 110.039C42.093 112.023 33.989 111.206 28.227 103.055C24.344 96.217 24.844 89.257 27.572 87.213C31.651 84.765 37.953 88.071 42.802 93.613M85.359 92.024C80.784 97.301 78.237 106.924 81.574 110.023C84.764 112.431 93.326 112.094 99.652 103.449C104.245 97.643 102.706 87.948 100.082 85.373C96.185 82.403 90.592 86.203 85.358 92.023V92.025" fill="#C51850"/>
</g>
<defs>
<clipPath id="clip0_401_105">
<rect width="128" height="128" fill="white"/>
</clipPath>
</defs>
</svg>
