<svg width="128" height="128" viewBox="0 0 128 128" fill="none" xmlns="http://www.w3.org/2000/svg">
<mask id="path-1-inside-1_224_117" fill="white">
<path fill-rule="evenodd" clip-rule="evenodd" d="M63.0233 4.22737C62.8061 4.35377 61.8949 5.6614 60.9975 7.13334C58.7453 10.8299 58.7201 10.8322 55.6946 7.64812C53.7263 5.57752 53.2505 5.19833 52.6163 5.20292C52.2038 5.20522 51.6832 5.34541 51.458 5.51432C51.2339 5.68323 50.5985 7.02763 50.047 8.50187C48.7842 11.8789 48.7233 11.9881 48.0235 12.1225C47.5926 12.2041 46.763 11.7422 44.7739 10.3139C43.3054 9.25795 41.8645 8.39501 41.5727 8.39501C40.3616 8.39501 40.0203 9.05686 39.4435 12.5236C38.7104 16.9314 38.7356 16.9164 34.7622 15.1112C33.1581 14.3839 31.6368 13.7875 31.3805 13.7875C31.1243 13.7875 30.6382 14.0633 30.3016 14.4C29.6903 15.0124 29.6891 15.0147 29.8557 18.3849L30.0235 21.7586L29.3858 22.0998C28.8204 22.402 28.4309 22.3653 25.9282 21.7735C22.6615 21.0025 21.972 21.0232 21.3102 21.9137L20.8264 22.564L21.4756 25.3459C21.8318 26.8753 22.1754 28.3484 22.2398 28.6184C22.303 28.8873 22.1938 29.3182 21.9962 29.5744C21.6698 29.9961 21.3228 30.0341 18.2996 29.9881C13.1829 29.9077 12.8922 30.3466 15.0064 34.9612C15.6786 36.4263 16.229 37.7569 16.229 37.9166C16.229 38.76 15.5568 39.0668 12.6693 39.5379C11.0537 39.8011 9.64953 40.0171 9.54842 40.0171C9.4473 40.0171 9.14395 40.2377 8.87507 40.5066C7.99604 41.3856 8.24538 42.2106 10.239 45.0247C12.7221 48.5293 12.7175 48.5419 8.61538 50.1116C3.9502 51.896 3.85598 52.3361 7.40772 55.7052C10.7159 58.8421 10.7193 58.7961 6.97453 61.1506C4.1375 62.9327 4.09384 62.9753 4.02145 63.9416C3.93412 65.1171 3.9548 65.1378 7.34222 67.2072C10.6917 69.2526 10.6917 69.3146 7.40427 72.4251C3.86862 75.7689 3.97778 76.2572 8.64641 78.0187C12.7256 79.5573 12.7313 79.5757 10.2436 83.0803C8.8337 85.0671 8.38442 85.8944 8.38442 86.508C8.38442 87.6559 8.98193 87.9489 12.5521 88.5487C15.5591 89.0554 16.229 89.353 16.229 90.1827C16.229 90.3527 15.6775 91.6948 15.003 93.1633C12.9048 97.7331 13.1438 98.1135 18.11 98.1135C22.735 98.1135 22.6121 97.9721 21.6158 102.143C20.8643 105.287 20.8528 105.889 21.5331 106.568C22.0536 107.09 23.0349 107.031 26.104 106.297C28.4481 105.737 28.8595 105.698 29.403 105.989L30.0235 106.321L29.8557 109.694C29.6891 113.065 29.6903 113.067 30.3016 113.68C30.6382 114.016 31.1312 114.292 31.3955 114.292C31.6597 114.292 33.1811 113.699 34.7771 112.974C38.7379 111.176 38.7127 111.161 39.4435 115.555C40.0226 119.038 40.3604 119.685 41.5968 119.685C41.9036 119.685 43.3135 118.857 44.7314 117.846C47.2214 116.07 47.8672 115.792 48.5302 116.213C48.7014 116.321 49.3656 117.781 50.0056 119.456C50.9467 121.92 51.2914 122.561 51.8154 122.811C52.8128 123.289 53.4298 122.906 55.7739 120.352C58.604 117.269 58.7201 117.284 61.0308 121.029C63.5829 125.163 64.2436 125.154 66.86 120.945C69.1144 117.319 69.088 117.321 72.1353 120.504C74.1588 122.616 74.5897 122.953 75.2722 122.953C75.7077 122.953 76.2283 122.789 76.427 122.59C76.627 122.39 77.2888 120.913 77.8978 119.309C78.5068 117.704 79.1377 116.307 79.3008 116.203C79.9455 115.793 80.6131 116.081 83.0996 117.846C84.5635 118.886 85.9412 119.685 86.2687 119.685C87.4844 119.685 87.9234 118.822 88.429 115.43C88.861 112.538 88.9483 112.261 89.5171 111.972C90.0767 111.688 90.4122 111.784 93.0367 112.975C94.6327 113.699 96.1541 114.292 96.4184 114.292C96.6826 114.292 97.1836 114.008 97.5295 113.661L98.1603 113.032L97.9868 109.797C97.8214 106.708 97.8363 106.543 98.3292 106.097C98.836 105.639 98.8877 105.641 101.721 106.288C105.152 107.072 105.792 107.092 106.437 106.448C107.067 105.818 107.06 105.68 106.198 102.046C105.232 97.9687 105.102 98.1135 109.746 98.1135C112.912 98.1135 113.265 98.0687 113.668 97.624C114.341 96.8794 114.182 96.0268 112.827 93.1392C112.143 91.6845 111.588 90.3608 111.593 90.1976C111.616 89.3393 112.29 89.0462 115.408 88.5395C117.315 88.2304 118.742 87.8719 119.001 87.6387C119.867 86.8561 119.549 85.8381 117.571 83.0654C115.093 79.5906 115.103 79.5573 119.072 78.0946C123.825 76.3434 123.96 75.7597 120.404 72.3803C117.109 69.2503 117.108 69.2675 120.716 67.0521C125.078 64.3748 125.085 63.7716 120.793 61.108C117.103 58.818 117.105 58.8501 120.413 55.7086C123.961 52.3373 123.865 51.896 119.198 50.1116C115.08 48.5362 115.068 48.4971 117.57 45.0626C119.061 43.0173 119.429 42.3382 119.429 41.6373C119.429 40.4124 118.88 40.1377 115.268 39.554C112.249 39.0668 111.585 38.7704 111.585 37.912C111.585 37.7488 112.136 36.4355 112.811 34.9911C114.131 32.1633 114.316 31.0315 113.569 30.3547C113.168 29.9916 112.63 29.9398 109.753 29.987C106.743 30.0375 106.358 29.995 105.941 29.5756C105.484 29.1171 105.489 29.0528 106.201 26.0802C107.075 22.4376 107.078 22.3492 106.36 21.6747C105.632 20.9898 105.176 21.0013 101.832 21.7884C99.3944 22.363 98.9911 22.4009 98.4373 22.1044L97.8087 21.7677L97.9822 18.4056L98.1569 15.0446L97.5284 14.4161C97.1825 14.0702 96.6918 13.7875 96.4367 13.7875C96.1828 13.7875 94.6695 14.3885 93.0746 15.1216C90.4111 16.3476 90.125 16.4292 89.5493 16.1282C88.9748 15.8271 88.8794 15.5307 88.3887 12.5351C87.8223 9.0695 87.4718 8.39501 86.2411 8.39501C85.9493 8.39501 84.5026 9.26254 83.0261 10.3231C80.6016 12.0651 80.2764 12.2294 79.672 12.0191C79.1721 11.8445 78.8814 11.4641 78.5264 10.5185C78.2632 9.82213 77.76 8.48004 77.406 7.53666C76.6913 5.63382 76.2926 5.20752 75.2217 5.20752C74.6242 5.20752 74.083 5.63727 72.1434 7.65156C69.0949 10.8184 69.0834 10.8172 66.8416 7.14023C65.9453 5.67059 65.0089 4.35836 64.7595 4.22507C64.1988 3.92402 63.5392 3.92517 63.0233 4.22737ZM65.8017 15.2985C68.4572 17.1887 67.045 21.6322 63.7886 21.6322C60.6286 21.6322 59.0372 17.8253 61.2939 15.6639C62.5671 14.4436 64.393 14.2954 65.8017 15.2985ZM62.4625 27.035C64.2034 27.6969 64.9181 27.2993 68.8927 23.4683L71.8791 20.5888L73.143 20.7566C77.1073 21.2828 84.9921 24.7461 89.5229 27.9508C93.6859 30.897 99.2186 36.8974 101.576 41.0237L102.081 41.9073L99.8471 46.9402C98.6177 49.7082 97.6122 52.2637 97.6122 52.6211C97.6122 53.445 98.1523 54.748 98.6728 55.1789C98.8923 55.3616 100.978 56.3659 103.307 57.4104L107.54 59.3109L107.707 60.3876C107.922 61.7906 107.95 65.2366 107.755 66.2156L107.602 66.9809H105.186C102.383 66.9809 102.599 66.7304 102.447 70.1684C102.337 72.6607 101.735 74.0384 100.365 74.9301C98.1339 76.3859 94.4489 76.1216 92.8862 74.3946C92.646 74.1292 92.1795 72.7951 91.8486 71.4289C90.8822 67.4382 89.5838 65.1975 86.9754 63.0178C86.1515 62.3295 85.4782 61.6872 85.4782 61.5895C85.4782 61.493 86.3836 60.73 87.4913 59.8969C91.5245 56.8565 93.8433 53.3174 94.0984 49.8117C94.5845 43.1253 89.2574 36.8928 81.3335 34.8728C79.4548 34.3936 78.6528 34.3787 55.4108 34.3787C42.2196 34.3787 31.4265 34.2925 31.4265 34.1879C31.4265 33.9409 34.3577 31.0958 36.0848 29.6687C40.8269 25.7481 46.987 22.6629 53.3666 21.0151L55.5728 20.444L58.7074 23.6223C60.4322 25.37 62.1224 26.9052 62.4625 27.035ZM22.9912 47.4848C24.4356 48.4305 25.0274 50.8067 24.1748 52.235C22.8557 54.4458 19.5142 54.5389 18.1939 52.4016C16.2739 49.2969 19.9715 45.5061 22.9912 47.4848ZM108.079 47.6055C111.857 49.9093 108.929 55.5765 104.885 53.7874C102.184 52.5924 102.098 48.9016 104.739 47.5549C105.841 46.993 107.107 47.0125 108.079 47.6055ZM34.1233 61.7113V75.8056H21.6629L21.1688 73.6615C20.1967 69.4387 19.7877 65.07 20.0324 61.4918L20.2036 58.9777L24.4873 57.0565C27.175 55.8523 28.9032 54.9342 29.1261 54.5929C30.1005 53.1072 30.0074 52.0454 28.64 49.0257L28.0011 47.6158H34.1233V61.7113ZM69.9969 48.2294C72.665 48.9234 74.0749 50.3356 74.0784 52.3155C74.0807 53.769 73.3602 54.6814 71.5734 55.488C70.3083 56.0602 70.1072 56.074 62.1293 56.1522L53.979 56.2303V47.8606H61.2813C66.9852 47.8606 68.8938 47.941 69.9969 48.2294ZM67.2438 68.4551C68.5663 68.8228 70.1302 69.9719 70.9322 71.1658C71.7745 72.4205 72.2675 74.0522 73.4349 79.4574C74.4208 84.026 75.0551 85.5198 76.8315 87.464C79.032 89.8713 78.5218 89.7782 89.5137 89.7782C94.7775 89.7782 99.083 89.8621 99.083 89.9655C99.083 90.1505 95.4577 94.4365 95.3015 94.4365C95.2567 94.4365 93.363 94.0401 91.0936 93.5552C84.6853 92.1866 84.4544 92.3475 82.9836 99.2154L82.0379 103.628L81.1841 104.048C79.7593 104.752 75.1286 106.199 72.7282 106.693C68.7617 107.509 64.4447 107.785 60.6505 107.464C54.1824 106.916 45.6174 104.407 45.283 102.96C45.2117 102.653 44.7808 100.668 44.327 98.5467C43.8719 96.4255 43.3192 94.4135 43.0986 94.0757C42.038 92.4578 40.9223 92.3578 36.0158 93.4437C34.1578 93.8551 32.5365 94.1906 32.4124 94.1906C32.1791 94.1906 28.7308 90.2034 28.7308 89.9345C28.7308 89.8506 36.9213 89.7529 46.9319 89.7184L65.133 89.6564L65.1985 83.1906C65.2444 78.6254 65.1812 76.6249 64.9836 76.3882C64.763 76.1216 63.5886 76.0515 59.3417 76.0515H53.979V68.2069L60.169 68.2081C63.5725 68.2092 66.7566 68.3207 67.2438 68.4551ZM39.1976 97.8584C42.092 99.6222 40.704 104.244 37.2809 104.24C33.7706 104.238 32.4698 99.6589 35.4608 97.8342C36.4502 97.231 38.1887 97.2425 39.1976 97.8584ZM92.199 98.0514C93.6181 99.0913 94.0904 101.255 93.2113 102.696C90.9029 106.482 85.13 103.473 87.0581 99.4889C88.0061 97.532 90.526 96.8265 92.199 98.0514Z"/>
</mask>
<path fill-rule="evenodd" clip-rule="evenodd" d="M63.0233 4.22737C62.8061 4.35377 61.8949 5.6614 60.9975 7.13334C58.7453 10.8299 58.7201 10.8322 55.6946 7.64812C53.7263 5.57752 53.2505 5.19833 52.6163 5.20292C52.2038 5.20522 51.6832 5.34541 51.458 5.51432C51.2339 5.68323 50.5985 7.02763 50.047 8.50187C48.7842 11.8789 48.7233 11.9881 48.0235 12.1225C47.5926 12.2041 46.763 11.7422 44.7739 10.3139C43.3054 9.25795 41.8645 8.39501 41.5727 8.39501C40.3616 8.39501 40.0203 9.05686 39.4435 12.5236C38.7104 16.9314 38.7356 16.9164 34.7622 15.1112C33.1581 14.3839 31.6368 13.7875 31.3805 13.7875C31.1243 13.7875 30.6382 14.0633 30.3016 14.4C29.6903 15.0124 29.6891 15.0147 29.8557 18.3849L30.0235 21.7586L29.3858 22.0998C28.8204 22.402 28.4309 22.3653 25.9282 21.7735C22.6615 21.0025 21.972 21.0232 21.3102 21.9137L20.8264 22.564L21.4756 25.3459C21.8318 26.8753 22.1754 28.3484 22.2398 28.6184C22.303 28.8873 22.1938 29.3182 21.9962 29.5744C21.6698 29.9961 21.3228 30.0341 18.2996 29.9881C13.1829 29.9077 12.8922 30.3466 15.0064 34.9612C15.6786 36.4263 16.229 37.7569 16.229 37.9166C16.229 38.76 15.5568 39.0668 12.6693 39.5379C11.0537 39.8011 9.64953 40.0171 9.54842 40.0171C9.4473 40.0171 9.14395 40.2377 8.87507 40.5066C7.99604 41.3856 8.24538 42.2106 10.239 45.0247C12.7221 48.5293 12.7175 48.5419 8.61538 50.1116C3.9502 51.896 3.85598 52.3361 7.40772 55.7052C10.7159 58.8421 10.7193 58.7961 6.97453 61.1506C4.1375 62.9327 4.09384 62.9753 4.02145 63.9416C3.93412 65.1171 3.9548 65.1378 7.34222 67.2072C10.6917 69.2526 10.6917 69.3146 7.40427 72.4251C3.86862 75.7689 3.97778 76.2572 8.64641 78.0187C12.7256 79.5573 12.7313 79.5757 10.2436 83.0803C8.8337 85.0671 8.38442 85.8944 8.38442 86.508C8.38442 87.6559 8.98193 87.9489 12.5521 88.5487C15.5591 89.0554 16.229 89.353 16.229 90.1827C16.229 90.3527 15.6775 91.6948 15.003 93.1633C12.9048 97.7331 13.1438 98.1135 18.11 98.1135C22.735 98.1135 22.6121 97.9721 21.6158 102.143C20.8643 105.287 20.8528 105.889 21.5331 106.568C22.0536 107.09 23.0349 107.031 26.104 106.297C28.4481 105.737 28.8595 105.698 29.403 105.989L30.0235 106.321L29.8557 109.694C29.6891 113.065 29.6903 113.067 30.3016 113.68C30.6382 114.016 31.1312 114.292 31.3955 114.292C31.6597 114.292 33.1811 113.699 34.7771 112.974C38.7379 111.176 38.7127 111.161 39.4435 115.555C40.0226 119.038 40.3604 119.685 41.5968 119.685C41.9036 119.685 43.3135 118.857 44.7314 117.846C47.2214 116.07 47.8672 115.792 48.5302 116.213C48.7014 116.321 49.3656 117.781 50.0056 119.456C50.9467 121.92 51.2914 122.561 51.8154 122.811C52.8128 123.289 53.4298 122.906 55.7739 120.352C58.604 117.269 58.7201 117.284 61.0308 121.029C63.5829 125.163 64.2436 125.154 66.86 120.945C69.1144 117.319 69.088 117.321 72.1353 120.504C74.1588 122.616 74.5897 122.953 75.2722 122.953C75.7077 122.953 76.2283 122.789 76.427 122.59C76.627 122.39 77.2888 120.913 77.8978 119.309C78.5068 117.704 79.1377 116.307 79.3008 116.203C79.9455 115.793 80.6131 116.081 83.0996 117.846C84.5635 118.886 85.9412 119.685 86.2687 119.685C87.4844 119.685 87.9234 118.822 88.429 115.43C88.861 112.538 88.9483 112.261 89.5171 111.972C90.0767 111.688 90.4122 111.784 93.0367 112.975C94.6327 113.699 96.1541 114.292 96.4184 114.292C96.6826 114.292 97.1836 114.008 97.5295 113.661L98.1603 113.032L97.9868 109.797C97.8214 106.708 97.8363 106.543 98.3292 106.097C98.836 105.639 98.8877 105.641 101.721 106.288C105.152 107.072 105.792 107.092 106.437 106.448C107.067 105.818 107.06 105.68 106.198 102.046C105.232 97.9687 105.102 98.1135 109.746 98.1135C112.912 98.1135 113.265 98.0687 113.668 97.624C114.341 96.8794 114.182 96.0268 112.827 93.1392C112.143 91.6845 111.588 90.3608 111.593 90.1976C111.616 89.3393 112.29 89.0462 115.408 88.5395C117.315 88.2304 118.742 87.8719 119.001 87.6387C119.867 86.8561 119.549 85.8381 117.571 83.0654C115.093 79.5906 115.103 79.5573 119.072 78.0946C123.825 76.3434 123.96 75.7597 120.404 72.3803C117.109 69.2503 117.108 69.2675 120.716 67.0521C125.078 64.3748 125.085 63.7716 120.793 61.108C117.103 58.818 117.105 58.8501 120.413 55.7086C123.961 52.3373 123.865 51.896 119.198 50.1116C115.08 48.5362 115.068 48.4971 117.57 45.0626C119.061 43.0173 119.429 42.3382 119.429 41.6373C119.429 40.4124 118.88 40.1377 115.268 39.554C112.249 39.0668 111.585 38.7704 111.585 37.912C111.585 37.7488 112.136 36.4355 112.811 34.9911C114.131 32.1633 114.316 31.0315 113.569 30.3547C113.168 29.9916 112.63 29.9398 109.753 29.987C106.743 30.0375 106.358 29.995 105.941 29.5756C105.484 29.1171 105.489 29.0528 106.201 26.0802C107.075 22.4376 107.078 22.3492 106.36 21.6747C105.632 20.9898 105.176 21.0013 101.832 21.7884C99.3944 22.363 98.9911 22.4009 98.4373 22.1044L97.8087 21.7677L97.9822 18.4056L98.1569 15.0446L97.5284 14.4161C97.1825 14.0702 96.6918 13.7875 96.4367 13.7875C96.1828 13.7875 94.6695 14.3885 93.0746 15.1216C90.4111 16.3476 90.125 16.4292 89.5493 16.1282C88.9748 15.8271 88.8794 15.5307 88.3887 12.5351C87.8223 9.0695 87.4718 8.39501 86.2411 8.39501C85.9493 8.39501 84.5026 9.26254 83.0261 10.3231C80.6016 12.0651 80.2764 12.2294 79.672 12.0191C79.1721 11.8445 78.8814 11.4641 78.5264 10.5185C78.2632 9.82213 77.76 8.48004 77.406 7.53666C76.6913 5.63382 76.2926 5.20752 75.2217 5.20752C74.6242 5.20752 74.083 5.63727 72.1434 7.65156C69.0949 10.8184 69.0834 10.8172 66.8416 7.14023C65.9453 5.67059 65.0089 4.35836 64.7595 4.22507C64.1988 3.92402 63.5392 3.92517 63.0233 4.22737ZM65.8017 15.2985C68.4572 17.1887 67.045 21.6322 63.7886 21.6322C60.6286 21.6322 59.0372 17.8253 61.2939 15.6639C62.5671 14.4436 64.393 14.2954 65.8017 15.2985ZM62.4625 27.035C64.2034 27.6969 64.9181 27.2993 68.8927 23.4683L71.8791 20.5888L73.143 20.7566C77.1073 21.2828 84.9921 24.7461 89.5229 27.9508C93.6859 30.897 99.2186 36.8974 101.576 41.0237L102.081 41.9073L99.8471 46.9402C98.6177 49.7082 97.6122 52.2637 97.6122 52.6211C97.6122 53.445 98.1523 54.748 98.6728 55.1789C98.8923 55.3616 100.978 56.3659 103.307 57.4104L107.54 59.3109L107.707 60.3876C107.922 61.7906 107.95 65.2366 107.755 66.2156L107.602 66.9809H105.186C102.383 66.9809 102.599 66.7304 102.447 70.1684C102.337 72.6607 101.735 74.0384 100.365 74.9301C98.1339 76.3859 94.4489 76.1216 92.8862 74.3946C92.646 74.1292 92.1795 72.7951 91.8486 71.4289C90.8822 67.4382 89.5838 65.1975 86.9754 63.0178C86.1515 62.3295 85.4782 61.6872 85.4782 61.5895C85.4782 61.493 86.3836 60.73 87.4913 59.8969C91.5245 56.8565 93.8433 53.3174 94.0984 49.8117C94.5845 43.1253 89.2574 36.8928 81.3335 34.8728C79.4548 34.3936 78.6528 34.3787 55.4108 34.3787C42.2196 34.3787 31.4265 34.2925 31.4265 34.1879C31.4265 33.9409 34.3577 31.0958 36.0848 29.6687C40.8269 25.7481 46.987 22.6629 53.3666 21.0151L55.5728 20.444L58.7074 23.6223C60.4322 25.37 62.1224 26.9052 62.4625 27.035ZM22.9912 47.4848C24.4356 48.4305 25.0274 50.8067 24.1748 52.235C22.8557 54.4458 19.5142 54.5389 18.1939 52.4016C16.2739 49.2969 19.9715 45.5061 22.9912 47.4848ZM108.079 47.6055C111.857 49.9093 108.929 55.5765 104.885 53.7874C102.184 52.5924 102.098 48.9016 104.739 47.5549C105.841 46.993 107.107 47.0125 108.079 47.6055ZM34.1233 61.7113V75.8056H21.6629L21.1688 73.6615C20.1967 69.4387 19.7877 65.07 20.0324 61.4918L20.2036 58.9777L24.4873 57.0565C27.175 55.8523 28.9032 54.9342 29.1261 54.5929C30.1005 53.1072 30.0074 52.0454 28.64 49.0257L28.0011 47.6158H34.1233V61.7113ZM69.9969 48.2294C72.665 48.9234 74.0749 50.3356 74.0784 52.3155C74.0807 53.769 73.3602 54.6814 71.5734 55.488C70.3083 56.0602 70.1072 56.074 62.1293 56.1522L53.979 56.2303V47.8606H61.2813C66.9852 47.8606 68.8938 47.941 69.9969 48.2294ZM67.2438 68.4551C68.5663 68.8228 70.1302 69.9719 70.9322 71.1658C71.7745 72.4205 72.2675 74.0522 73.4349 79.4574C74.4208 84.026 75.0551 85.5198 76.8315 87.464C79.032 89.8713 78.5218 89.7782 89.5137 89.7782C94.7775 89.7782 99.083 89.8621 99.083 89.9655C99.083 90.1505 95.4577 94.4365 95.3015 94.4365C95.2567 94.4365 93.363 94.0401 91.0936 93.5552C84.6853 92.1866 84.4544 92.3475 82.9836 99.2154L82.0379 103.628L81.1841 104.048C79.7593 104.752 75.1286 106.199 72.7282 106.693C68.7617 107.509 64.4447 107.785 60.6505 107.464C54.1824 106.916 45.6174 104.407 45.283 102.96C45.2117 102.653 44.7808 100.668 44.327 98.5467C43.8719 96.4255 43.3192 94.4135 43.0986 94.0757C42.038 92.4578 40.9223 92.3578 36.0158 93.4437C34.1578 93.8551 32.5365 94.1906 32.4124 94.1906C32.1791 94.1906 28.7308 90.2034 28.7308 89.9345C28.7308 89.8506 36.9213 89.7529 46.9319 89.7184L65.133 89.6564L65.1985 83.1906C65.2444 78.6254 65.1812 76.6249 64.9836 76.3882C64.763 76.1216 63.5886 76.0515 59.3417 76.0515H53.979V68.2069L60.169 68.2081C63.5725 68.2092 66.7566 68.3207 67.2438 68.4551ZM39.1976 97.8584C42.092 99.6222 40.704 104.244 37.2809 104.24C33.7706 104.238 32.4698 99.6589 35.4608 97.8342C36.4502 97.231 38.1887 97.2425 39.1976 97.8584ZM92.199 98.0514C93.6181 99.0913 94.0904 101.255 93.2113 102.696C90.9029 106.482 85.13 103.473 87.0581 99.4889C88.0061 97.532 90.526 96.8265 92.199 98.0514Z" fill="#F74B00" stroke="#A4A4A4" stroke-width="3" mask="url(#path-1-inside-1_224_117)"/>
</svg>
