<svg width="128" height="128" viewBox="0 0 128 128" fill="none" xmlns="http://www.w3.org/2000/svg">
<path fill-rule="evenodd" clip-rule="evenodd" d="M84.2881 94.8283L83.2623 94.6596C83.2452 94.68 83.2284 94.7005 83.2118 94.7211C82.2702 95.8912 82.1739 97.326 82.0782 98.7532C82.0325 99.4343 81.987 100.114 81.8497 100.762C81.527 102.285 81.3639 103.842 81.2008 105.399C81.1296 106.078 81.0585 106.758 80.9741 107.434C80.8648 108.225 80.7759 108.96 80.6915 109.657C80.5443 110.873 80.4109 111.975 80.207 113.064C80.134 113.454 80.0248 113.822 79.8843 114.167C78.7093 117.05 75.3414 118.283 72.5824 116.621C71.5265 115.984 71.04 115.235 70.9711 114.002C70.9602 113.806 70.9598 113.598 70.9693 113.376C70.9976 112.718 71.0225 112.059 71.0444 111.4C71.1833 107.229 71.2038 103.052 71.2243 98.8762C71.229 97.9025 71.2338 96.9288 71.2401 95.9552C71.2418 95.6937 71.2436 95.4322 71.2455 95.1707C71.2471 94.9541 71.1327 94.7367 70.9335 94.358C70.8092 94.1217 70.6518 93.8226 70.4689 93.4216C70.3305 93.865 70.2001 94.2263 70.0882 94.5362C70.0042 94.769 69.9307 94.9728 69.8721 95.1604C69.7932 95.4132 69.7414 95.6366 69.7277 95.8624C69.4155 101.005 69.1318 106.15 68.8876 111.297C68.854 112.006 68.7541 112.668 68.5937 113.273C68.5582 113.408 68.5196 113.539 68.4781 113.668C67.7241 116.01 66.0072 117.416 63.71 117.376C61.3476 117.334 59.6339 116.012 58.8722 113.72C58.7635 113.393 58.6743 113.046 58.6052 112.681C58.5228 112.245 58.4693 111.782 58.4461 111.293C58.3439 109.145 58.2529 106.995 58.1618 104.846C58.0417 102.011 57.9216 99.1754 57.776 96.3413C57.7752 96.3274 57.7744 96.3135 57.7736 96.2996C57.7401 95.776 57.5859 95.2586 57.4316 94.7412C57.3771 94.5584 57.3226 94.3757 57.2735 94.1927C57.2566 94.1297 57.2403 94.0668 57.2249 94.0038L56.4494 94.068C56.4428 94.1122 56.4358 94.1565 56.4286 94.2008C56.3969 94.3932 56.3599 94.5857 56.3228 94.7782C56.2244 95.2895 56.1259 95.8008 56.1295 96.3113C56.1298 96.3498 56.1301 96.3882 56.1303 96.4267C56.1373 97.4317 56.1423 98.4369 56.1474 99.442C56.1674 103.428 56.1874 107.414 56.3257 111.395C56.3417 111.855 56.3593 112.316 56.3786 112.775C56.3972 113.218 56.3999 113.635 56.3678 114.024C56.2725 115.182 55.8697 116.097 54.6643 116.739C52.8047 117.73 50.7536 117.776 49.3569 116.298C48.5975 115.494 47.9587 114.439 47.5269 113.336C47.3024 112.762 47.1339 112.175 47.0335 111.603C46.4433 108.242 46.0161 104.852 45.5889 101.461C45.3822 99.8206 45.1755 98.1801 44.9503 96.5426C44.8602 95.8878 44.5732 95.2604 43.9069 94.6983C43.8746 95.3657 43.8507 96.0321 43.835 96.6976C43.714 101.824 44.0778 106.9 44.8107 111.997C44.9059 112.659 45.0072 113.321 45.1145 113.984C45.2496 114.818 45.394 115.652 45.5474 116.488C43.2221 118.065 40.5173 117.446 39.0193 115.164C38.5875 114.506 38.2559 113.709 38.0627 112.788C37.4613 109.919 36.9012 107.042 36.341 104.165C35.9005 101.903 35.4601 99.6405 34.9995 97.3823C34.8315 96.5581 34.4203 95.784 33.6109 95.1037C33.6608 95.9486 33.7136 96.7926 33.7712 97.6353C34.1314 102.906 34.6824 108.131 35.9282 113.24C36.0546 113.758 36.1882 114.276 36.3294 114.792C36.4582 115.262 36.5933 115.732 36.7353 116.2C36.8405 116.547 36.9494 116.893 37.0622 117.239C36.0113 117.368 35.1043 117.245 34.3382 116.86C32.9737 116.173 32.0563 114.652 31.5694 112.233C30.985 109.328 30.3874 106.426 29.7897 103.524C28.41 96.8232 27.0303 90.1229 25.8129 83.3929C25.4748 81.5238 25.1292 79.6545 24.7836 77.7847C23.1797 69.1092 21.5736 60.4212 20.6984 51.6668C18.886 33.537 28.7019 18.5334 45.8969 12.7198C61.6276 7.40119 77.0439 8.34475 90.9946 17.9516C102.684 26.0013 108.166 37.8192 106.081 51.8442C103.866 66.7389 101.049 81.5436 98.2331 96.3476C97.168 101.947 96.1029 107.546 95.0703 113.15C94.8204 114.506 94.2468 115.521 93.4974 116.201C92.7299 116.897 91.7779 117.243 90.8001 117.244L94.5155 95.3475L93.2797 94.9812C93.2621 95.0297 93.2442 95.0781 93.226 95.1265C93.1323 95.376 93.0314 95.624 92.9306 95.8721C92.6694 96.5143 92.4082 97.1565 92.2709 97.8244C91.8945 99.6545 91.541 101.49 91.1876 103.325C90.5982 106.384 90.009 109.444 89.3139 112.479C89.2094 112.935 89.0533 113.404 88.8538 113.862C88.4544 114.777 87.8813 115.644 87.2007 116.263C85.6372 117.682 83.6521 117.893 82.118 116.833L84.2881 94.8283ZM79.8127 118.269C77.4874 120.096 74.1819 120.496 71.3048 118.762C70.62 118.349 69.9693 117.821 69.4634 117.105C69.393 117.196 69.3206 117.286 69.2461 117.374C67.8611 119.008 65.8985 119.911 63.6667 119.872C61.4796 119.834 59.5199 118.991 58.1105 117.368C58.0389 117.286 57.9692 117.202 57.9014 117.117C57.4034 117.86 56.7117 118.475 55.8279 118.946C53.4328 120.222 50.0724 120.606 47.6255 118.091L46.9371 118.558C44.8747 119.956 42.4464 120.239 40.2981 119.359L37.3625 119.718C35.3674 119.962 33.4118 119.559 31.8449 118.145C30.3692 116.813 29.5655 114.871 29.1343 112.728C28.5548 109.847 27.9599 106.959 27.3638 104.063C25.9812 97.3493 24.5915 90.6005 23.3686 83.8396C23.0343 81.9916 22.6913 80.1368 22.3472 78.2758C20.7424 69.5968 19.113 60.7848 18.2265 51.9165C16.296 32.6067 26.831 16.5314 45.1048 10.353C61.4407 4.82982 77.696 5.76689 92.3988 15.8916C104.828 24.4506 110.772 37.1896 108.538 52.2133C106.315 67.1618 103.484 82.042 100.665 96.8633C99.6015 102.452 98.5399 108.032 97.5132 113.604C96.8144 117.397 94.0641 119.737 90.8034 119.741L87.8555 119.745L88.0185 118.784C85.8272 120.275 83.0273 120.492 80.71 118.89L79.8127 118.269Z" fill="#3B3057"/>
<path d="M81.1332 108.062C80.8676 110.031 80.7197 111.793 80.3952 113.522C79.704 117.206 75.8085 118.991 72.6847 117.112C71.4474 116.368 70.9832 115.47 71.0535 113.837C71.3169 107.72 71.2875 101.59 71.3328 95.4641C71.3354 95.1092 71.0287 94.752 70.5474 93.6989C70.1605 94.9354 69.8358 95.54 69.7979 96.1622C69.4821 101.352 69.1953 106.545 68.9483 111.739C68.7694 115.503 66.7388 117.927 63.7124 117.874C60.576 117.819 58.5702 115.536 58.3892 111.736C58.1496 106.706 57.9704 101.674 57.7115 96.6455C57.6707 95.8517 57.3471 95.0724 57.1542 94.2865C56.8928 94.3081 56.6315 94.3297 56.3701 94.3512C56.2568 95.106 56.0412 95.8614 56.0465 96.6153C56.0857 102.155 56.0654 107.699 56.2984 113.231C56.3732 115.008 56.1933 116.366 54.5648 117.232C52.6843 118.231 50.6101 118.278 49.1977 116.786C48.0301 115.553 47.1447 113.734 46.8481 112.048C45.9625 107.014 45.4398 101.917 44.7414 96.8487C44.6503 96.1879 44.3601 95.5546 43.6863 94.9874C43.3281 102.37 43.9937 109.63 45.3452 116.978C42.3157 119.028 38.6493 117.4 37.7762 113.244C36.6899 108.073 35.7365 102.873 34.6786 97.6961C34.5086 96.8643 34.0927 96.0831 33.2743 95.3965C33.7233 102.982 34.3977 110.495 36.7644 117.736C33.8091 118.097 31.9785 116.496 31.2098 112.684C29.2543 102.984 27.1528 93.3118 25.3884 83.5778C23.4601 72.9388 21.2921 62.2985 20.2163 51.5592C18.3835 33.2623 28.31 18.1203 45.6986 12.2531C61.6066 6.88549 77.1965 7.83776 91.3043 17.5331C103.126 25.6571 108.67 37.584 106.56 51.7382C103.473 72.4556 99.2309 93.0006 95.426 113.609C94.9144 116.379 93.0621 117.738 91.1077 117.741C92.3461 110.457 93.6055 103.05 94.8649 95.6426C94.4483 95.5194 94.0317 95.3961 93.6151 95.2729C93.2682 96.2279 92.7979 97.1574 92.595 98.1423C91.5798 103.069 90.7292 108.032 89.6047 112.932C89.2876 114.314 88.4999 115.815 87.4677 116.75C85.8866 118.183 83.8791 118.396 82.3278 117.326C83.0774 109.74 83.7998 102.429 84.5223 95.1186C84.1765 95.0619 83.8307 95.0051 83.485 94.9483C82.0161 96.6994 82.4913 99.0583 82.0564 101.107C81.5877 103.314 81.4519 105.593 81.1332 108.062ZM67.4807 34.4716C67.0725 33.7412 66.7047 32.9844 66.2498 32.2845C61.4333 24.875 52.7538 21.3341 44.0019 23.1913C35.7021 24.9526 29.0379 31.9669 27.7067 40.3426C26.3281 49.0157 30.3515 57.7334 37.729 62.0587C45.862 66.827 55.5602 65.8808 62.6537 59.6268C69.5722 53.527 71.512 43.9287 67.4807 34.4716ZM59.6908 66.7351C58.2533 67.1737 56.8308 67.6714 55.3758 68.0407C49.0694 69.6412 42.6864 70.0532 36.2149 69.3072C35.5605 69.2317 34.8348 69.7778 34.1422 70.0355C34.6933 70.4207 35.2553 70.7912 35.7931 71.1944C36.6452 71.8332 37.5878 72.3954 38.2968 73.1699C39.1904 74.146 39.7381 75.4662 40.6981 76.3506C43.393 78.8335 46.4054 77.8799 47.3434 74.3446C47.5755 73.47 47.7157 72.5708 47.9185 71.5838C50.4966 71.1765 53.0275 70.7767 55.6168 70.3677C56.0236 71.2607 56.3486 72.0203 56.711 72.7615C58.1882 75.7832 61.0439 76.3293 63.3906 73.9035C64.2284 73.0375 65.2586 71.7678 65.2063 70.7328C65.0203 67.0468 67.3698 65.7206 70.1117 64.4935C71.2435 63.987 72.27 63.2438 73.6356 62.436C73.9476 63.0605 74.2752 63.7162 74.734 64.6347C76.3139 62.3228 75.2914 60.8747 74.2243 59.9552C73.1214 59.0049 71.5066 58.6524 70.1158 58.0383C69.9972 58.647 69.6133 59.3915 69.8344 59.8263C70.0575 60.2648 70.8811 60.3959 72.183 61.0133C67.7549 63.0535 63.9083 64.8258 59.6908 66.7351Z" fill="#65D7E8"/>
<path d="M67.9469 34.8279C71.9623 44.0399 69.9833 53.5546 62.9253 59.6012C55.6888 65.8007 45.7951 66.7388 37.4981 62.012C29.9718 57.7243 25.8674 49.0826 27.2737 40.485C28.6317 32.1823 35.4304 25.229 43.8974 23.4831C52.8258 21.642 61.6804 25.1521 66.594 32.4971C67.058 33.1909 67.4332 33.9411 67.9469 34.8279ZM61.7707 57.4299C69.6112 49.6275 69.7574 38.4328 62.1176 30.8781C54.8442 23.6858 42.9673 23.4072 35.636 30.2568C27.7901 37.5873 27.2173 48.8996 34.3108 56.4266C41.712 64.2802 53.2017 64.8111 61.7707 57.4299Z" fill="#3E345B"/>
<path fill-rule="evenodd" clip-rule="evenodd" d="M75.1739 64.5017C76.7764 62.1547 75.7393 60.6846 74.6568 59.7512C73.8786 59.08 72.849 58.7026 71.8195 58.3251C71.3691 58.16 70.9187 57.9949 70.4894 57.8051C70.4527 57.9935 70.391 58.1947 70.3294 58.3959C70.1887 58.8547 70.0481 59.3134 70.204 59.6202C70.3501 59.9076 70.7501 60.065 71.3706 60.3091C71.7112 60.4431 72.1183 60.6032 72.5863 60.8253L72.5803 60.828L72.5784 60.8289L72.5764 60.8299C68.0889 62.8991 64.1899 64.6971 60.103 66.5644C59.6353 66.7107 59.184 66.8561 58.7437 66.9981L58.7427 66.9984C57.6336 67.356 56.5943 67.691 55.5381 67.9593C49.1413 69.5841 42.6667 70.0023 36.1024 69.245C35.649 69.1927 35.1619 69.4348 34.6748 69.6768C34.4487 69.7891 34.2227 69.9015 34 69.9844C34.1731 70.1054 34.3472 70.225 34.5213 70.3447C34.9096 70.6115 35.298 70.8783 35.6746 71.1609C35.9091 71.3368 36.1504 71.5071 36.3919 71.6775C37.0404 72.135 37.6902 72.5935 38.2142 73.1663C38.6223 73.6124 38.9592 74.1294 39.2952 74.6448C39.7056 75.2743 40.1145 75.9017 40.6499 76.3953C43.3835 78.9159 46.4391 77.9479 47.3905 74.3589C47.5501 73.7569 47.6669 73.1435 47.7896 72.4986C47.8479 72.1923 47.9076 71.8789 47.9738 71.5562L55.7825 70.3216C55.9173 70.6177 56.0432 70.8993 56.1644 71.1705C56.4145 71.7298 56.6449 72.245 56.8924 72.7517C58.3908 75.8194 61.2875 76.3737 63.6678 73.9111C64.5176 73.0319 65.5625 71.7429 65.5096 70.6923C65.3209 66.9504 67.7041 65.604 70.4853 64.3583C71.2563 64.013 71.9791 63.5593 72.7902 63.0502C73.1869 62.8012 73.6047 62.5389 74.0597 62.2696L75.1739 64.5017Z" fill="#3B3057"/>
<path d="M40.6499 71.6717C42.5 71.8052 44 71.8052 46 71.8052C46 73.6886 44.4902 75.3234 43.5 76.3954C42.2782 75.3922 40.5478 73.5949 40.6499 71.6717Z" fill="white"/>
<path d="M58.0042 69.9395C59.849 69.746 62 69.5 63.5 68.5C63.8307 70.3541 62.4261 72.8601 61.6396 74.0892C60.2606 73.3163 58.2415 71.8508 58.0042 69.9395Z" fill="white"/>
<path d="M61.9673 57.7973C53.6128 65.1724 42.2389 64.6327 34.9122 56.6484C27.8902 48.9961 28.4573 37.4955 36.2241 30.0431C43.4815 23.0794 55.2387 23.3627 62.4387 30.6746C70.0016 38.3551 69.8569 49.7361 61.9673 57.7973ZM50.3111 54.139C51.5228 58.02 54.6744 57.8515 57.4097 56.3971C58.0715 56.0451 58.6997 55.5893 59.2558 55.0847C65.2949 49.6051 65.1915 37.7814 58.8722 32.6544C57.4966 31.5383 55.3986 31.2543 53.583 30.7803C53.0705 30.6466 52.2524 31.0532 51.7907 31.4588C48.4869 34.361 49.3075 40.5611 53.2089 42.6166C53.9011 42.9812 54.543 43.4413 55.4779 44.0261C54.459 44.638 53.8389 45.0501 53.1843 45.3968C50.3081 46.9202 49.4459 48.5523 49.8854 51.7429C49.9774 52.4112 50.117 53.0729 50.3111 54.139Z" fill="#FCFCFC"/>
<path d="M50.5024 53.6765C50.3573 52.83 50.2274 52.1828 50.1417 51.5292C49.7327 48.4084 50.5352 46.812 53.2122 45.3219C53.8215 44.9828 54.3987 44.5798 55.347 43.9812C54.4768 43.4092 53.8793 42.9592 53.2351 42.6026C49.6039 40.5921 48.8401 34.5277 51.9151 31.689C52.3448 31.2923 53.1063 30.8946 53.5833 31.0254C55.2732 31.489 57.2259 31.7668 58.5063 32.8584C64.3881 37.8732 64.4843 49.4382 58.8633 54.7978C58.3457 55.2914 57.7611 55.7372 57.145 56.0815C54.5992 57.5041 51.6657 57.6689 50.5024 53.6765Z" fill="#3C3057"/>
</svg>
