<svg width="128" height="128" viewBox="0 0 128 128" fill="none" xmlns="http://www.w3.org/2000/svg">
<path d="M20.8078 96.4429C15.8433 87.8296 10.9487 79.3641 6.07055 70.8891C3.32285 66.1154 3.30343 61.3063 6.05083 56.534C13.6279 43.3724 21.1983 30.2069 28.8383 17.0818C31.5436 12.4343 35.6466 9.99858 41.1032 10C56.3875 10.004 71.6717 9.99672 86.956 10.0039C92.4046 10.0065 96.4982 12.4528 99.207 17.1115C106.803 30.1761 114.352 43.2686 121.894 56.3645C124.677 61.1958 124.714 66.1002 121.933 70.9383C114.364 84.1045 106.779 97.2616 99.1468 110.391C96.4298 115.065 92.1892 117.495 86.8516 117.533C71.6423 117.641 56.4313 117.637 41.2219 117.535C35.887 117.499 31.6591 115.097 28.9006 110.436C26.184 105.846 23.5531 101.205 20.8078 96.4429ZM41.8645 37C34.5261 43.743 30.71 52.1267 30.8134 62.0626C30.954 75.5679 39.3869 87.4505 51.909 92.3286C64.418 97.2016 78.4417 93.9717 87.8455 84.0517C101.051 70.1213 99.2346 47.2635 83.9938 35.5871C81.8088 33.9131 79.8552 33.7725 78.1041 35.1635C75.7405 37.0408 75.9964 40.1359 78.6562 42.3356C86.0649 48.4629 89.2182 56.2714 87.7108 65.8128C86.1348 75.789 78.1259 83.7335 67.9383 85.5792C58.0651 87.368 47.8227 82.5921 42.7246 73.8224C37.6302 65.059 38.5146 53.7324 44.988 46.1493C46.3261 44.5818 47.9743 43.2792 49.4775 41.8524C51.3363 40.0881 51.5399 37.7427 49.9995 35.8745C48.5663 34.1364 46.1744 33.8124 44.1979 35.1377C43.4609 35.6318 42.7958 36.233 41.8645 37ZM68.6036 61.2832C68.6039 51.94 68.6161 42.5968 68.5982 33.2536C68.5917 29.851 66.7664 27.7718 63.8483 27.7368C60.9428 27.7021 58.911 29.804 58.8947 33.1053C58.8485 42.4483 58.8516 51.7918 58.895 61.1348C58.909 64.141 60.8592 66.2946 63.4941 66.4648C66.1143 66.6341 68.1271 64.7481 68.6036 61.2832Z" fill="#6DB33F"/>
<path d="M41.8645 37C34.5261 43.743 30.71 52.1267 30.8134 62.0626C30.954 75.5679 39.3869 87.4505 51.909 92.3286C64.418 97.2016 78.4417 93.9717 87.8455 84.0517C101.051 70.1213 99.2346 47.2635 83.9938 35.5871C81.8088 33.9131 79.8552 33.7725 78.1041 35.1635C75.7405 37.0408 75.9964 40.1359 78.6562 42.3356C86.0649 48.4629 89.2182 56.2714 87.7108 65.8128C86.1348 75.789 78.1259 83.7335 67.9383 85.5792C58.0651 87.368 47.8227 82.5921 42.7246 73.8224C37.6302 65.059 38.5146 53.7324 44.988 46.1493C46.3261 44.5818 47.9743 43.2792 49.4775 41.8524C51.3363 40.0881 51.5399 37.7427 49.9995 35.8745C48.5663 34.1364 46.1744 33.8124 44.1979 35.1377C43.4609 35.6318 42.7958 36.233 41.8645 37Z" fill="white"/>
<path d="M68.6036 61.2832C68.6039 51.94 68.6161 42.5968 68.5982 33.2536C68.5917 29.851 66.7664 27.7718 63.8483 27.7368C60.9428 27.7021 58.911 29.804 58.8947 33.1053C58.8485 42.4483 58.8516 51.7918 58.895 61.1348C58.909 64.141 60.8592 66.2946 63.4941 66.4648C66.1143 66.6341 68.1271 64.7481 68.6036 61.2832Z" fill="white"/>
</svg>
