<svg width="128" height="128" viewBox="0 0 128 128" fill="none" xmlns="http://www.w3.org/2000/svg">
<g clip-path="url(#clip0_401_91)">
<path d="M93.042 39.6911L93.0417 39.6909C89.9027 36.5032 86.564 33.1168 82.0492 30.5167C77.546 27.9233 71.8515 26.1021 64.004 26.1021C55.555 26.1021 48.7414 28.2121 43.5174 32.3909C38.7837 36.1775 35.3128 41.6967 33.1283 48.9897C35.9405 45.6884 38.9648 43.3307 42.2062 41.942C46.0485 40.2958 50.1611 40.0263 54.5233 41.117C59.5338 42.3659 63.1025 45.9892 66.9179 49.8632L66.9651 49.9111C66.9652 49.9111 66.9652 49.9112 66.9652 49.9112C70.1063 53.0989 73.4465 56.4853 77.9616 59.0854C82.4653 61.6788 88.1591 63.5001 96.004 63.5001C104.452 63.5001 111.266 61.3897 116.49 57.2103C121.224 53.4231 124.695 47.9029 126.88 40.6084C124.067 43.9115 121.043 46.2702 117.801 47.6595C113.959 49.3063 109.847 49.5758 105.484 48.4852L93.042 39.6911ZM93.042 39.6911L93.112 39.7622M93.042 39.6911L93.112 39.7622M93.112 39.7622C96.9235 43.6271 100.484 47.2377 105.484 48.4851L93.112 39.7622ZM94.8798 79.01C92.6953 86.3032 89.2241 91.8226 84.4902 95.6092C79.2661 99.788 72.4525 101.898 64.004 101.898C56.1591 101.898 50.4653 100.077 45.9616 97.4834C41.4464 94.8833 38.1063 91.4968 34.9651 88.3091L34.921 88.2643C31.1042 84.3891 27.5351 80.7652 22.5233 79.515C18.1606 78.4243 14.048 78.6938 10.2058 80.3406C6.96459 81.7298 3.94054 84.0884 1.12853 87.3913C3.31313 80.097 6.78421 74.577 11.5179 70.7899C16.7419 66.6104 23.5555 64.5001 32.004 64.5001C39.8515 64.5001 45.546 66.3213 50.0492 68.9147C54.564 71.5148 57.9026 74.9012 61.0417 78.0889L61.042 78.0891L61.115 78.1631C64.9253 82.0269 68.4854 85.637 73.4837 86.8831C77.8464 87.9738 81.959 87.7043 85.8013 86.0582C89.0428 84.6694 92.0673 82.3116 94.8798 79.01Z" fill="#38BDF8" stroke="#757575"/>
</g>
<defs>
<clipPath id="clip0_401_91">
<rect width="128" height="128" fill="white"/>
</clipPath>
</defs>
</svg>
