<svg width="128" height="128" viewBox="0 0 128 128" fill="none" xmlns="http://www.w3.org/2000/svg">
<path d="M82.48 63.578L104.898 25.176L115.73 63.578L104.898 101.976L82.48 63.578ZM71.554 69.816L93.976 108.218L54.929 98.296L26.718 69.816H71.554ZM93.969 18.93L71.555 57.34H26.719L54.93 28.855L93.969 18.93ZM125.969 50.512L112.293 0.0310001L61.25 13.559L53.695 26.739L38.359 26.63L1 63.582L38.359 100.531H38.363L53.687 100.418L61.257 113.594L112.292 127.121L125.968 76.648L118.206 63.578L125.969 50.512Z" fill="#110B09"/>
<path d="M93.969 18.93L71.555 57.34H26.719L54.93 28.855L93.969 18.93Z" fill="white"/>
<path d="M71.554 69.816L93.976 108.218L54.929 98.296L26.718 69.816H71.554Z" fill="white"/>
<path d="M82.48 63.578L104.898 25.176L115.73 63.578L104.898 101.976L82.48 63.578Z" fill="white"/>
<path d="M82.2641 63.452L82.1905 63.578L82.2641 63.7041L104.682 102.102L104.979 102.61L105.139 102.044L115.971 63.6459L115.99 63.578L115.971 63.5101L105.139 25.1081L104.979 24.5417L104.682 25.05L82.2641 63.452ZM71.7699 69.69L71.6975 69.566H71.554H26.718H26.1185L26.5404 69.9919L54.7514 98.4719L54.8002 98.5212L54.8674 98.5383L93.9144 108.46L94.4928 108.607L94.1919 108.092L71.7699 69.69ZM94.1849 19.056L94.4856 18.5407L93.9074 18.6877L54.8684 28.6127L54.8012 28.6298L54.7524 28.6791L26.5414 57.1641L26.1195 57.59H26.719H71.555H71.6986L71.7709 57.466L94.1849 19.056ZM104.817 101.342L82.7695 63.578L104.817 25.8103L115.47 63.578L104.817 101.342ZM27.3175 70.066H71.4105L93.4592 107.829L55.0578 98.0708L27.3175 70.066ZM55.0588 29.0802L93.4524 19.3193L71.4114 57.09H27.3185L55.0588 29.0802ZM53.6932 26.989L53.8393 26.99L53.9119 26.8633L61.415 13.7739L112.117 0.336354L125.7 50.4753L117.991 63.4503L117.915 63.578L117.991 63.7057L125.699 76.6847L112.116 126.816L61.4218 113.379L53.9038 100.293L53.8311 100.167L53.6852 100.168L38.461 100.28L1.35551 63.582L38.461 26.8807L53.6932 26.989Z" stroke="white" stroke-width="0.5"/>
</svg>
