<svg width="1440" height="640" viewBox="0 0 1440 640" fill="none" xmlns="http://www.w3.org/2000/svg">
<g clip-path="url(#clip0_706_86)">
<g opacity="0.15">
<path fill-rule="evenodd" clip-rule="evenodd" d="M439.57 249.551C811.912 75.8857 1226.22 12.5694 1633.44 67.1009L1620.96 160.271C1231.55 108.123 835.359 168.67 479.3 334.741L25.0601 546.601L-14.6699 461.401L439.57 249.551Z" fill="url(#paint0_linear_706_86)"/>
<path opacity="0.56" fill-rule="evenodd" clip-rule="evenodd" d="M272.3 266.93C725.832 207.046 1187.03 278.396 1601.26 472.53L1556.84 567.31C1160.72 381.666 719.698 313.436 286 370.7L-267.29 443.75L-280.99 339.98L272.3 266.93Z" fill="url(#paint1_linear_706_86)"/>
<path fill-rule="evenodd" clip-rule="evenodd" d="M195.26 416.132C580.674 273.816 998.801 244.939 1400.12 332.922L1379.99 424.742C996.223 340.603 596.38 368.213 227.82 504.302L-242.36 677.922L-274.92 589.742L195.26 416.122V416.132Z" fill="url(#paint2_linear_706_86)"/>
</g>
<path d="M864 298.196C530.5 467.696 0 74.6942 0 639.696H935.851L1440 639.696V21.6956C1247 -48.3034 1197.5 128.696 864 298.196Z" fill="url(#paint3_linear_706_86)"/>
</g>
<defs>
<linearGradient id="paint0_linear_706_86" x1="793.5" y1="261.501" x2="759.5" y2="149.501" gradientUnits="userSpaceOnUse">
<stop offset="0.58" stop-opacity="0"/>
<stop offset="1"/>
</linearGradient>
<linearGradient id="paint1_linear_706_86" x1="644.19" y1="398.02" x2="645.54" y2="267.7" gradientUnits="userSpaceOnUse">
<stop offset="0.58" stop-opacity="0"/>
<stop offset="1"/>
</linearGradient>
<linearGradient id="paint2_linear_706_86" x1="547" y1="457.272" x2="522.36" y2="342.852" gradientUnits="userSpaceOnUse">
<stop offset="0.58" stop-opacity="0"/>
<stop offset="1"/>
</linearGradient>
<linearGradient id="paint3_linear_706_86" x1="720" y1="21" x2="720" y2="570.5" gradientUnits="userSpaceOnUse">
<stop/>
<stop offset="1" stop-opacity="0.35"/>
</linearGradient>
<clipPath id="clip0_706_86">
<rect width="1440" height="640" fill="white"/>
</clipPath>
</defs>
</svg>
